<?xml version="1.0" encoding="UTF-8" standalone="no"?>
<svg
   version="1.1"
   viewBox="0 0 512 512"
   id="svg220"
   sodipodi:docname="hourglass.svg"
   inkscape:version="1.2.2 (b0a8486, 2022-12-01)"
   xmlns:inkscape="http://www.inkscape.org/namespaces/inkscape"
   xmlns:sodipodi="http://sodipodi.sourceforge.net/DTD/sodipodi-0.dtd"
   xmlns="http://www.w3.org/2000/svg"
   xmlns:svg="http://www.w3.org/2000/svg">
  <defs
     id="defs224" />
  <sodipodi:namedview
     id="namedview222"
     pagecolor="#505050"
     bordercolor="#ffffff"
     borderopacity="1"
     inkscape:showpageshadow="0"
     inkscape:pageopacity="0"
     inkscape:pagecheckerboard="1"
     inkscape:deskcolor="#505050"
     showgrid="false"
     inkscape:zoom="2.0058594"
     inkscape:cx="176.73223"
     inkscape:cy="24.677702"
     inkscape:window-width="2560"
     inkscape:window-height="1323"
     inkscape:window-x="0"
     inkscape:window-y="25"
     inkscape:window-maximized="1"
     inkscape:current-layer="svg220" />
  <path
     fill="#000000"
     d="   M 89.56 0.00   L 422.56 0.00   C 437.04 2.60 441.51 21.86 427.48 28.46   Q 424.31 29.95 417.15 29.98   Q 405.32 30.03 393.88 30.00   Q 392.76 29.99 393.33 30.97   C 421.22 78.94 397.78 127.58 366.64 165.91   C 340.14 198.53 309.76 227.61 278.78 255.86   A 0.90 0.90 44.6 0 0 278.79 257.19   C 308.31 283.70 337.24 311.29 362.58 341.93   C 394.38 380.39 422.99 432.17 393.37 481.38   Q 393.00 482.00 393.73 482.00   Q 404.85 482.00 415.95 482.00   Q 424.09 482.00 427.32 483.50   C 441.58 490.10 437.10 509.83 422.19 512.00   L 89.69 512.00   C 74.28 509.27 70.50 489.20 85.48 483.17   Q 88.48 481.96 94.19 482.02   Q 106.20 482.16 118.21 481.75   A 0.30 0.30 -16.1 0 0 118.46 481.30   C 87.65 428.01 121.20 374.08 156.20 333.94   C 180.69 305.84 206.49 281.43 233.44 256.94   A 0.59 0.58 -44.7 0 0 233.45 256.08   C 207.43 232.23 181.71 207.88 158.27 181.48   C 122.52 141.22 86.36 85.68 118.76 30.81   Q 119.24 30.01 118.31 30.01   Q 106.66 30.00 94.76 29.99   Q 88.30 29.99 85.07 28.61   C 70.47 22.40 74.55 2.78 89.56 0.00   Z   M 139.68 95.24   C 179.19 87.50 218.35 90.92 255.95 104.85   Q 274.25 111.63 274.70 111.77   C 303.42 120.91 332.13 123.39 362.35 117.97   A 1.76 1.74 -79.7 0 0 363.56 117.12   C 380.84 87.29 381.07 55.40 355.04 30.36   A 1.31 0.92 59.6 0 0 354.25 30.00   L 157.75 30.00   A 1.30 0.93 -60.5 0 0 156.95 30.37   C 139.24 47.52 131.40 70.62 139.04 94.86   A 0.56 0.55 75.5 0 0 139.68 95.24   Z   M 247.45 133.70   C 217.15 122.34 184.78 118.02 152.79 123.41   A 0.51 0.50 -21.0 0 0 152.44 124.18   C 165.57 144.96 181.73 163.64 198.88 181.12   Q 226.50 209.28 255.63 235.72   A 0.53 0.53 0.0 0 0 256.33 235.72   C 285.74 209.14 314.49 181.61 339.95 151.43   Q 340.46 150.83 339.67 150.85   Q 300.70 152.02 263.79 139.83   Q 263.79 139.83 247.45 133.70   Z   M 240.66 291.32   C 209.31 319.86 178.18 350.77 155.32 384.31   C 138.45 409.07 127.61 439.71 145.39 467.66   Q 145.71 468.15 145.97 467.63   C 164.23 432.17 202.26 403.40 240.46 393.08   A 0.68 0.66 -8.1 0 0 240.96 392.44   C 241.01 385.73 239.99 375.49 242.29 370.14   C 247.40 358.22 264.43 358.03 269.65 369.93   C 272.05 375.41 271.02 385.64 270.99 392.24   A 0.87 0.86 -82.7 0 0 271.63 393.08   C 310.03 403.60 347.64 432.07 366.05 467.70   Q 366.36 468.29 366.70 467.72   C 374.87 454.17 378.07 439.67 374.46 423.29   C 368.20 394.87 344.89 365.72 324.94 344.30   Q 299.36 316.82 271.58 291.45   Q 271.21 291.12 271.20 291.62   Q 270.91 302.11 270.96 312.59   Q 270.99 318.85 269.82 321.72   C 263.79 336.53 241.03 331.96 241.01 316.74   Q 241.00 303.92 240.99 291.47   Q 240.99 291.03 240.66 291.32   Z   M 339.37 481.16   C 326.57 456.60 301.63 437.08 276.05 426.20   C 262.79 420.56 252.49 419.34 239.11 424.76   C 212.17 435.67 186.46 455.29 172.51 481.21   A 0.55 0.53 13.9 0 0 173.00 482.00   L 338.75 482.00   A 0.65 0.57 -12.2 0 0 339.37 481.16   Z"
     id="path218"
     style="fill:#59b2d8;fill-opacity:1" />
</svg>
