<?xml version="1.0" encoding="utf-8" standalone="no"?>
<!DOCTYPE svg PUBLIC "-//W3C//DTD SVG 1.1//EN"
  "http://www.w3.org/Graphics/SVG/1.1/DTD/svg11.dtd">
<svg width="293.4pt" height="293.4pt" viewBox="0 0 293.4 293.4"
     xmlns="http://www.w3.org/2000/svg" version="1.1">
 <metadata>
  <rdf:RDF xmlns:dc="http://purl.org/dc/elements/1.1/" xmlns:cc="http://creativecommons.org/ns#" xmlns:rdf="http://www.w3.org/1999/02/22-rdf-syntax-ns#">
   <cc:Work>
    <dc:type rdf:resource="http://purl.org/dc/dcmitype/StillImage"/>
    <dc:date>2023-06-11T12:34:59.912144</dc:date>
    <dc:format>image/svg+xml</dc:format>
    <dc:creator>
     <cc:Agent>
      <dc:title>Matplotlib v3.6.3, https://matplotlib.org/</dc:title>
     </cc:Agent>
    </dc:creator>
   </cc:Work>
  </rdf:RDF>
 </metadata>
 <defs>
  <style type="text/css">*{stroke-linejoin: round; stroke-linecap: butt}</style>
 </defs>
 <g id="figure_1">
  <g id="patch_1">
   <path d="M 0 293.4 
L 1 293.805882 
L 2 294.033334 
L 3 294.047445 
L 4 294.27623 
L 5 294.293739 
L 6 294.368013 
L 7 294.39999 
L 8 294.397615 
L 9 294.394661 
L 10 294.384802 
L 11 294.376042 
L 12 294.37328 
L 13 294.358102 
L 14 294.338577 
L 15 294.287056 
L 16 294.198195 
L 17 294.024688 
L 18 294.013918 
L 19 293.971384 
L 20 293.949139 
L 21 293.933455 
L 22 293.876419 
L 23 293.860576 
L 24 293.848085 
L 25 293.828689 
L 26 293.775414 
L 27 293.764448 
L 28 293.405127 
L 29 293.369351 
L 30 293.359662 
L 31 293.305259 
L 32 293.245022 
L 33 293.186212 
L 34 293.049362 
L 35 293.027352 
L 36 292.916758 
L 37 292.826223 
L 38 292.801703 
L 39 292.652012 
L 40 292.613711 
L 41 292.60674 
L 42 292.581764 
L 43 292.574777 
L 44 292.500201 
L 45 292.47292 
L 46 292.432854 
L 47 292.425443 
L 48 292.42317 
L 49 292.415303 
L 50 292.411496 
L 51 292.406899 
L 52 292.418734 
L 53 292.425146 
L 54 292.431954 
L 55 292.435906 
L 56 292.514012 
L 57 292.627059 
L 58 292.829603 
L 59 293.161321 
L 60 293.296492 
L 61 293.313876 
L 62 293.341519 
L 63 293.354717 
L 64 293.413648 
L 65 293.431581 
L 66 293.685076 
L 67 293.78153 
L 68 293.857293 
L 69 294.101758 
L 70 294.112346 
L 71 294.229395 
L 72 294.245372 
L 73 294.269985 
L 74 294.337169 
L 75 294.38326 
L 76 294.399859 
L 77 294.342597 
L 78 294.338218 
L 79 294.334066 
L 80 294.271341 
L 81 294.259351 
L 82 294.231416 
L 83 294.096389 
L 84 294.084735 
L 85 293.734558 
L 86 293.41241 
L 87 293.063037 
L 88 292.990302 
L 89 292.942781 
L 90 292.751873 
L 91 292.737419 
L 92 292.651599 
L 93 292.552462 
L 94 292.458975 
L 95 292.454343 
L 96 292.410426 
L 97 292.40352 
L 98 292.40089 
L 99 292.400434 
L 100 292.414386 
L 101 292.437089 
L 102 292.445897 
L 103 292.468671 
L 104 292.474613 
L 105 292.551849 
L 106 292.559439 
L 107 292.684368 
L 108 292.759556 
L 109 292.780118 
L 110 292.871755 
L 111 293.129261 
L 112 293.159473 
L 113 293.497687 
L 114 293.594031 
L 115 293.654826 
L 116 293.788633 
L 117 293.801407 
L 118 293.819804 
L 119 293.841827 
L 120 294.08465 
L 121 294.101074 
L 122 294.136566 
L 123 294.154093 
L 124 294.213298 
L 125 294.304909 
L 126 294.30976 
L 127 294.315291 
L 128 294.319185 
L 129 294.342328 
L 130 294.361052 
L 131 294.397767 
L 132 294.398476 
L 133 294.39944 
L 134 294.362925 
L 135 294.184436 
L 136 294.143356 
L 137 294.108746 
L 138 294.016439 
L 139 293.970814 
L 140 293.754362 
L 141 293.573214 
L 142 293.38808 
L 143 293.317791 
L 144 293.306312 
L 145 293.218051 
L 146 293.041751 
L 147 292.944469 
L 148 292.892697 
L 149 292.696622 
L 150 292.583634 
L 151 292.475424 
L 152 292.42376 
L 153 292.416778 
L 154 292.407773 
L 155 292.400577 
L 156 292.402048 
L 157 292.424441 
L 158 292.493919 
L 159 292.512035 
L 160 292.550333 
L 161 292.710826 
L 162 292.770736 
L 163 292.836176 
L 164 292.904487 
L 165 293.234049 
L 166 293.337859 
L 167 293.375524 
L 168 293.394342 
L 169 293.761013 
L 170 293.791012 
L 171 293.801025 
L 172 293.809951 
L 173 293.926657 
L 174 293.950915 
L 175 293.986511 
L 176 294.256541 
L 177 294.368193 
L 178 294.372622 
L 179 294.383288 
L 180 294.386912 
L 181 294.39605 
L 182 294.393612 
L 183 294.357853 
L 184 294.348281 
L 185 294.343817 
L 186 294.32838 
L 187 294.322727 
L 188 294.284336 
L 189 294.279694 
L 190 294.257627 
L 191 294.251957 
L 192 294.194755 
L 193 294.021801 
L 194 294.008161 
L 195 293.953703 
L 196 293.941227 
L 197 293.921351 
L 198 293.87223 
L 199 293.860359 
L 200 293.837524 
L 201 293.491554 
L 202 293.4037 
L 203 293.237352 
L 204 293.111901 
L 205 293.101378 
L 206 293.058954 
L 207 292.942043 
L 208 292.645707 
L 209 292.632491 
L 210 292.620171 
L 211 292.563825 
L 212 292.552601 
L 213 292.546355 
L 214 292.537403 
L 215 292.51907 
L 216 292.513639 
L 217 292.416333 
L 218 292.410689 
L 219 292.409678 
L 220 292.415499 
L 221 292.472684 
L 222 292.498261 
L 223 292.620256 
L 224 292.633896 
L 225 292.658216 
L 226 292.664979 
L 227 292.689214 
L 228 292.697362 
L 229 292.721148 
L 230 292.731526 
L 231 292.911005 
L 232 292.924537 
L 233 292.938326 
L 234 293.052109 
L 235 293.30117 
L 236 293.378426 
L 237 293.528389 
L 238 293.712445 
L 239 293.739697 
L 240 293.842911 
L 241 293.885564 
L 242 293.922044 
L 243 293.947327 
L 244 293.974345 
L 245 294.103043 
L 246 294.308162 
L 247 294.314581 
L 248 294.368757 
L 249 294.375834 
L 250 294.378659 
L 251 294.39178 
L 252 294.398373 
L 253 294.399427 
L 254 294.399926 
L 255 294.399805 
L 256 294.399389 
L 257 294.361339 
L 258 294.35832 
L 259 294.351801 
L 260 294.344349 
L 261 294.325234 
L 262 294.317679 
L 263 294.29309 
L 264 294.266923 
L 265 294.250833 
L 266 294.218321 
L 267 294.161973 
L 268 294.141877 
L 269 294.093038 
L 270 294.044542 
L 271 293.830876 
L 272 293.779547 
L 273 293.76532 
L 274 293.699411 
L 275 293.681267 
L 276 293.309943 
L 277 293.209096 
L 278 293.199483 
L 279 292.976993 
L 280 292.920586 
L 281 292.674265 
L 282 292.664118 
L 283 292.611544 
L 284 292.603507 
L 285 292.590288 
L 286 292.582346 
L 287 292.50242 
L 288 292.407001 
L 289 292.402178 
L 290 292.400706 
L 291 292.412272 
L 292 292.414596 
L 293.4 292.418679 
L 292.425041 292.4 
L 292.429149 291.4 
L 292.435216 290.4 
L 292.450439 289.4 
L 292.477486 288.4 
L 292.484222 287.4 
L 292.546843 286.4 
L 292.55317 285.4 
L 292.559744 284.4 
L 292.675755 283.4 
L 292.761956 282.4 
L 292.803242 281.4 
L 292.854846 280.4 
L 292.890364 279.4 
L 292.901763 278.4 
L 293.019447 277.4 
L 293.108069 276.4 
L 293.170387 275.4 
L 293.288238 274.4 
L 293.35085 273.4 
L 293.43308 272.4 
L 293.472275 271.4 
L 293.483617 270.4 
L 293.56946 269.4 
L 293.582933 268.4 
L 293.59621 267.4 
L 293.607714 266.4 
L 293.834671 265.4 
L 293.844199 264.4 
L 293.862358 263.4 
L 293.951261 262.4 
L 294.024355 261.4 
L 294.265166 260.4 
L 294.277704 259.4 
L 294.343945 258.4 
L 294.369583 257.4 
L 294.373114 256.4 
L 294.396724 255.4 
L 294.399946 254.4 
L 294.379972 253.4 
L 294.37098 252.4 
L 294.366602 251.4 
L 294.359344 250.4 
L 294.354175 249.4 
L 294.340731 248.4 
L 294.311556 247.4 
L 294.303834 246.4 
L 294.288313 245.4 
L 294.06768 244.4 
L 294.041252 243.4 
L 293.761834 242.4 
L 293.489386 241.4 
L 293.464442 240.4 
L 293.418428 239.4 
L 293.358594 238.4 
L 292.985781 237.4 
L 292.903367 236.4 
L 292.890841 235.4 
L 292.796934 234.4 
L 292.76552 233.4 
L 292.676289 232.4 
L 292.668221 231.4 
L 292.646481 230.4 
L 292.502121 229.4 
L 292.467126 228.4 
L 292.454127 227.4 
L 292.432245 226.4 
L 292.400233 225.4 
L 292.400589 224.4 
L 292.404772 223.4 
L 292.420701 222.4 
L 292.424054 221.4 
L 292.488013 220.4 
L 292.608469 219.4 
L 292.618248 218.4 
L 292.690805 217.4 
L 292.730783 216.4 
L 292.879231 215.4 
L 292.902424 214.4 
L 292.931179 213.4 
L 292.949895 212.4 
L 293.155883 211.4 
L 293.180871 210.4 
L 293.192851 209.4 
L 293.308653 208.4 
L 293.323112 207.4 
L 293.390336 206.4 
L 293.707394 205.4 
L 293.750099 204.4 
L 293.773684 203.4 
L 293.90207 202.4 
L 294.176249 201.4 
L 294.288343 200.4 
L 294.312373 199.4 
L 294.322446 198.4 
L 294.372042 197.4 
L 294.385455 196.4 
L 294.390271 195.4 
L 294.397251 194.4 
L 294.399724 193.4 
L 294.399452 192.4 
L 294.390757 191.4 
L 294.305045 190.4 
L 294.295366 189.4 
L 294.28921 188.4 
L 294.26745 187.4 
L 294.108855 186.4 
L 293.907289 185.4 
L 293.893365 184.4 
L 293.783746 183.4 
L 293.405656 182.4 
L 293.244144 181.4 
L 293.199464 180.4 
L 293.085964 179.4 
L 292.80375 178.4 
L 292.792869 177.4 
L 292.559807 176.4 
L 292.451013 175.4 
L 292.441943 174.4 
L 292.402796 173.4 
L 292.404205 172.4 
L 292.429764 171.4 
L 292.432301 170.4 
L 292.436377 169.4 
L 292.442069 168.4 
L 292.444974 167.4 
L 292.448381 166.4 
L 292.455842 165.4 
L 292.459212 164.4 
L 292.465615 163.4 
L 292.553193 162.4 
L 292.562081 161.4 
L 292.570861 160.4 
L 292.585318 159.4 
L 292.602627 158.4 
L 292.612575 157.4 
L 292.644292 156.4 
L 292.656884 155.4 
L 292.89944 154.4 
L 292.942232 153.4 
L 292.951224 152.4 
L 292.978247 151.4 
L 293.021091 150.4 
L 293.032642 149.4 
L 293.103838 148.4 
L 293.285366 147.4 
L 293.345858 146.4 
L 293.363122 145.4 
L 293.692962 144.4 
L 293.704445 143.4 
L 293.715812 142.4 
L 293.975015 141.4 
L 293.997136 140.4 
L 294.040916 139.4 
L 294.053528 138.4 
L 294.061947 137.4 
L 294.190757 136.4 
L 294.28652 135.4 
L 294.369747 134.4 
L 294.396688 133.4 
L 294.398582 132.4 
L 294.399597 131.4 
L 294.37146 130.4 
L 294.21717 129.4 
L 294.19223 128.4 
L 294.148146 127.4 
L 294.019477 126.4 
L 293.843701 125.4 
L 293.797833 124.4 
L 293.778795 123.4 
L 293.719351 122.4 
L 293.650219 121.4 
L 293.399506 120.4 
L 293.376113 119.4 
L 293.348137 118.4 
L 293.33307 117.4 
L 293.26685 116.4 
L 293.229799 115.4 
L 293.031923 114.4 
L 292.962739 113.4 
L 292.948402 112.4 
L 292.937051 111.4 
L 292.927176 110.4 
L 292.904232 109.4 
L 292.894262 108.4 
L 292.880991 107.4 
L 292.834415 106.4 
L 292.79236 105.4 
L 292.701389 104.4 
L 292.680541 103.4 
L 292.654818 102.4 
L 292.647443 101.4 
L 292.615633 100.4 
L 292.607459 99.4 
L 292.568669 98.4 
L 292.505727 97.4 
L 292.489792 96.4 
L 292.462187 95.4 
L 292.449551 94.4 
L 292.446416 93.4 
L 292.441741 92.4 
L 292.434688 91.4 
L 292.412673 90.4 
L 292.429829 89.4 
L 292.460117 88.4 
L 292.486067 87.4 
L 292.58473 86.4 
L 292.592365 85.4 
L 292.60185 84.4 
L 292.737442 83.4 
L 292.74609 82.4 
L 292.839243 81.4 
L 292.964055 80.4 
L 292.987823 79.4 
L 293.060185 78.4 
L 293.321981 77.4 
L 293.40248 76.4 
L 293.417418 75.4 
L 293.433973 74.4 
L 293.574969 73.4 
L 293.590047 72.4 
L 293.692429 71.4 
L 293.915235 70.4 
L 293.93378 69.4 
L 293.986133 68.4 
L 294.028108 67.4 
L 294.147956 66.4 
L 294.346789 65.4 
L 294.355691 64.4 
L 294.367335 63.4 
L 294.371691 62.4 
L 294.381067 61.4 
L 294.382012 60.4 
L 294.298311 59.4 
L 294.291193 58.4 
L 294.281283 57.4 
L 294.257945 56.4 
L 294.18218 55.4 
L 294.070037 54.4 
L 294.021607 53.4 
L 294.007873 52.4 
L 293.871882 51.4 
L 293.765712 50.4 
L 293.756298 49.4 
L 293.691373 48.4 
L 293.313976 47.4 
L 292.978634 46.4 
L 292.907284 45.4 
L 292.781849 44.4 
L 292.717769 43.4 
L 292.705249 42.4 
L 292.572135 41.4 
L 292.522355 40.4 
L 292.508383 39.4 
L 292.501649 38.4 
L 292.440917 37.4 
L 292.428224 36.4 
L 292.420335 35.4 
L 292.411974 34.4 
L 292.441436 33.4 
L 292.445936 32.4 
L 292.451842 31.4 
L 292.461213 30.4 
L 292.481289 29.4 
L 292.59191 28.4 
L 292.609727 27.4 
L 292.676526 26.4 
L 292.693059 25.4 
L 292.745274 24.4 
L 292.887635 23.4 
L 292.933811 22.4 
L 292.957778 21.4 
L 292.980021 20.4 
L 292.991271 19.4 
L 293.030865 18.4 
L 293.051766 17.4 
L 293.063273 16.4 
L 293.128419 15.4 
L 293.227278 14.4 
L 293.634567 13.4 
L 293.886231 12.4 
L 293.919411 11.4 
L 293.94112 10.4 
L 293.968916 9.4 
L 294.09014 8.4 
L 294.112357 7.4 
L 294.156872 6.4 
L 294.195026 5.4 
L 294.203729 4.4 
L 294.210007 3.4 
L 294.300122 2.4 
L 294.357794 1.4 
L 294.372156 0 
L 292.4 -0.989723 
L 291.4 -0.904743 
L 290.4 -0.869093 
L 289.4 -0.864287 
L 288.4 -0.828038 
L 287.4 -0.788522 
L 286.4 -0.695807 
L 285.4 -0.66247 
L 284.4 -0.644188 
L 283.4 -0.493823 
L 282.4 -0.386558 
L 281.4 -0.377795 
L 280.4 -0.121742 
L 279.4 -0.091485 
L 278.4 -0.081215 
L 277.4 -0.006896 
L 276.4 0.014848 
L 275.4 0.025251 
L 274.4 0.165243 
L 273.4 0.343268 
L 272.4 0.356329 
L 271.4 0.365838 
L 270.4 0.416601 
L 269.4 0.444338 
L 268.4 0.459826 
L 267.4 0.704035 
L 266.4 0.767716 
L 265.4 0.789144 
L 264.4 0.95598 
L 263.4 0.96062 
L 262.4 0.965221 
L 261.4 0.983762 
L 260.4 0.999686 
L 259.4 0.998809 
L 258.4 0.943039 
L 257.4 0.935938 
L 256.4 0.926768 
L 255.4 0.922988 
L 254.4 0.799165 
L 253.4 0.712207 
L 252.4 0.70195 
L 251.4 0.689854 
L 250.4 0.667961 
L 249.4 0.412946 
L 248.4 0.350946 
L 247.4 0.203046 
L 246.4 0.179789 
L 245.4 -0.022996 
L 244.4 -0.060429 
L 243.4 -0.167872 
L 242.4 -0.18235 
L 241.4 -0.273617 
L 240.4 -0.287675 
L 239.4 -0.461565 
L 238.4 -0.470358 
L 237.4 -0.495107 
L 236.4 -0.666713 
L 235.4 -0.788477 
L 234.4 -0.853912 
L 233.4 -0.947763 
L 232.4 -0.99675 
L 231.4 -0.998794 
L 230.4 -0.999334 
L 229.4 -0.999966 
L 228.4 -0.986796 
L 227.4 -0.971009 
L 226.4 -0.946631 
L 225.4 -0.915711 
L 224.4 -0.703723 
L 223.4 -0.692942 
L 222.4 -0.632828 
L 221.4 -0.617934 
L 220.4 -0.425289 
L 219.4 -0.360199 
L 218.4 -0.34406 
L 217.4 -0.298062 
L 216.4 -0.221339 
L 215.4 -0.189683 
L 214.4 0.032153 
L 213.4 0.074708 
L 212.4 0.097288 
L 211.4 0.10728 
L 210.4 0.162167 
L 209.4 0.48888 
L 208.4 0.539344 
L 207.4 0.655905 
L 206.4 0.686671 
L 205.4 0.820352 
L 204.4 0.903367 
L 203.4 0.908786 
L 202.4 0.938773 
L 201.4 0.946568 
L 200.4 0.977485 
L 199.4 0.999919 
L 198.4 0.98377 
L 197.4 0.964598 
L 196.4 0.904111 
L 195.4 0.896338 
L 194.4 0.861804 
L 193.4 0.790533 
L 192.4 0.624179 
L 191.4 0.534181 
L 190.4 0.511002 
L 189.4 0.293452 
L 188.4 0.255634 
L 187.4 0.208902 
L 186.4 0.126062 
L 185.4 -0.161016 
L 184.4 -0.368731 
L 183.4 -0.377948 
L 182.4 -0.587169 
L 181.4 -0.638974 
L 180.4 -0.648965 
L 179.4 -0.75654 
L 178.4 -0.901188 
L 177.4 -0.976403 
L 176.4 -0.978477 
L 175.4 -0.999473 
L 174.4 -0.99783 
L 173.4 -0.996378 
L 172.4 -0.926461 
L 171.4 -0.911532 
L 170.4 -0.87394 
L 169.4 -0.86656 
L 168.4 -0.825824 
L 167.4 -0.783046 
L 166.4 -0.730883 
L 165.4 -0.70224 
L 164.4 -0.457875 
L 163.4 -0.414514 
L 162.4 -0.341598 
L 161.4 -0.28046 
L 160.4 -0.072572 
L 159.4 -0.053267 
L 158.4 -0.040345 
L 157.4 0.187017 
L 156.4 0.204441 
L 155.4 0.477719 
L 154.4 0.499408 
L 153.4 0.577001 
L 152.4 0.606095 
L 151.4 0.614761 
L 150.4 0.657581 
L 149.4 0.665412 
L 148.4 0.678982 
L 147.4 0.712659 
L 146.4 0.73541 
L 145.4 0.826923 
L 144.4 0.84001 
L 143.4 0.901509 
L 142.4 0.915135 
L 141.4 0.991741 
L 140.4 0.999836 
L 139.4 0.987209 
L 138.4 0.981219 
L 137.4 0.843649 
L 136.4 0.616801 
L 135.4 0.554815 
L 134.4 0.22322 
L 133.4 0.040813 
L 132.4 0.023378 
L 131.4 -0.138744 
L 130.4 -0.168508 
L 129.4 -0.218986 
L 128.4 -0.289706 
L 127.4 -0.305113 
L 126.4 -0.414069 
L 125.4 -0.464297 
L 124.4 -0.478079 
L 123.4 -0.546832 
L 122.4 -0.567421 
L 121.4 -0.683896 
L 120.4 -0.718 
L 119.4 -0.903333 
L 118.4 -0.995595 
L 117.4 -0.99946 
L 116.4 -0.993031 
L 115.4 -0.957747 
L 114.4 -0.918772 
L 113.4 -0.895863 
L 112.4 -0.871025 
L 111.4 -0.866273 
L 110.4 -0.770916 
L 109.4 -0.709318 
L 108.4 -0.699425 
L 107.4 -0.572741 
L 106.4 -0.376207 
L 105.4 -0.358226 
L 104.4 -0.302048 
L 103.4 -0.272202 
L 102.4 -0.202348 
L 101.4 -0.159305 
L 100.4 -0.100137 
L 99.4 -0.014292 
L 98.4 0.014453 
L 97.4 0.048175 
L 96.4 0.091788 
L 95.4 0.223642 
L 94.4 0.253846 
L 93.4 0.27542 
L 92.4 0.393682 
L 91.4 0.464498 
L 90.4 0.777692 
L 89.4 0.804505 
L 88.4 0.849312 
L 87.4 0.884221 
L 86.4 0.937508 
L 85.4 0.942706 
L 84.4 0.999457 
L 83.4 0.995559 
L 82.4 0.985266 
L 81.4 0.978682 
L 80.4 0.948557 
L 79.4 0.944495 
L 78.4 0.875473 
L 77.4 0.868379 
L 76.4 0.8413 
L 75.4 0.773572 
L 74.4 0.743947 
L 73.4 0.734175 
L 72.4 0.726146 
L 71.4 0.670974 
L 70.4 0.349453 
L 69.4 0.275425 
L 68.4 0.045969 
L 67.4 -0.001576 
L 66.4 -0.282188 
L 65.4 -0.326601 
L 64.4 -0.395174 
L 63.4 -0.600616 
L 62.4 -0.830441 
L 61.4 -0.916627 
L 60.4 -0.962852 
L 59.4 -0.982776 
L 58.4 -0.986945 
L 57.4 -0.999154 
L 56.4 -0.999719 
L 55.4 -0.932228 
L 54.4 -0.925216 
L 53.4 -0.823903 
L 52.4 -0.816284 
L 51.4 -0.793214 
L 50.4 -0.738479 
L 49.4 -0.729729 
L 48.4 -0.663526 
L 47.4 -0.655376 
L 46.4 -0.497648 
L 45.4 -0.454084 
L 44.4 -0.351662 
L 43.4 -0.335739 
L 42.4 -0.156646 
L 41.4 0.250887 
L 40.4 0.420668 
L 39.4 0.446619 
L 38.4 0.457771 
L 37.4 0.476783 
L 36.4 0.49323 
L 35.4 0.670298 
L 34.4 0.696588 
L 33.4 0.724002 
L 32.4 0.850208 
L 31.4 0.870893 
L 30.4 0.876612 
L 29.4 0.987799 
L 28.4 0.99753 
L 27.4 0.977394 
L 26.4 0.973657 
L 25.4 0.957915 
L 24.4 0.950722 
L 23.4 0.915213 
L 22.4 0.91093 
L 21.4 0.904157 
L 20.4 0.892137 
L 19.4 0.881812 
L 18.4 0.873957 
L 17.4 0.759957 
L 16.4 0.639988 
L 15.4 0.463084 
L 14.4 0.156875 
L 13.4 0.00092 
L 12.4 -0.011589 
L 11.4 -0.076363 
L 10.4 -0.086172 
L 9.4 -0.095839 
L 8.4 -0.488337 
L 7.4 -0.684929 
L 6.4 -0.792807 
L 5.4 -0.799338 
L 4.4 -0.826684 
L 3.4 -0.848695 
L 2.4 -0.923928 
L 1.4 -0.934261 
L 0 -0.98817 
L -0.993175 1 
L -0.954018 2 
L -0.893082 3 
L -0.884823 4 
L -0.871798 5 
L -0.86122 6 
L -0.766596 7 
L -0.441355 8 
L -0.418267 9 
L -0.096563 10 
L -0.064891 11 
L 0.073293 12 
L 0.377017 13 
L 0.440366 14 
L 0.451263 15 
L 0.482765 16 
L 0.498025 17 
L 0.685237 18 
L 0.712066 19 
L 0.767366 20 
L 0.81164 21 
L 0.849485 22 
L 0.862019 23 
L 0.876546 24 
L 0.968322 25 
L 0.97073 26 
L 0.978195 27 
L 0.988661 28 
L 1 29 
L 0.999938 30 
L 0.99123 31 
L 0.918746 32 
L 0.848726 33 
L 0.691429 34 
L 0.664755 35 
L 0.495505 36 
L 0.48455 37 
L 0.46075 38 
L 0.438115 39 
L 0.418928 40 
L 0.152474 41 
L -0.005128 42 
L -0.030933 43 
L -0.100166 44 
L -0.138895 45 
L -0.371323 46 
L -0.575139 47 
L -0.600856 48 
L -0.669216 49 
L -0.813109 50 
L -0.917198 51 
L -0.938762 52 
L -0.96669 53 
L -0.970113 54 
L -0.995868 55 
L -0.999647 56 
L -0.999991 57 
L -0.920301 58 
L -0.914782 59 
L -0.904652 60 
L -0.868758 61 
L -0.862732 62 
L -0.832853 63 
L -0.825557 64 
L -0.817634 65 
L -0.754651 66 
L -0.745036 67 
L -0.720978 68 
L -0.708341 69 
L -0.649961 70 
L -0.521396 71 
L -0.446613 72 
L -0.244367 73 
L -0.207304 74 
L -0.130704 75 
L 0.127902 76 
L 0.200449 77 
L 0.215142 78 
L 0.284386 79 
L 0.318736 80 
L 0.363946 81 
L 0.519627 82 
L 0.672267 83 
L 0.742221 84 
L 0.804357 85 
L 0.936083 86 
L 0.950914 87 
L 0.98113 88 
L 0.984359 89 
L 0.990216 90 
L 0.988813 91 
L 0.969868 92 
L 0.94374 93 
L 0.924557 94 
L 0.920343 95 
L 0.911834 96 
L 0.697088 97 
L 0.689422 98 
L 0.633232 99 
L 0.623248 100 
L 0.615839 101 
L 0.527273 102 
L 0.307174 103 
L 0.297443 104 
L 0.180455 105 
L -0.060748 106 
L -0.111163 107 
L -0.361431 108 
L -0.406347 109 
L -0.423556 110 
L -0.71087 111 
L -0.864058 112 
L -0.946428 113 
L -0.952284 114 
L -0.957038 115 
L -0.965163 116 
L -0.967947 117 
L -0.977846 118 
L -0.981016 119 
L -0.983422 120 
L -0.986616 121 
L -0.989303 122 
L -0.994455 123 
L -0.998385 124 
L -0.998875 125 
L -0.975345 126 
L -0.971458 127 
L -0.90455 128 
L -0.898327 129 
L -0.847148 130 
L -0.8281 131 
L -0.695934 132 
L -0.641021 133 
L -0.599801 134 
L -0.585361 135 
L -0.476352 136 
L -0.446005 137 
L -0.412941 138 
L -0.188493 139 
L -0.086553 140 
L -0.072717 141 
L 0.088069 142 
L 0.123268 143 
L 0.133045 144 
L 0.234853 145 
L 0.252665 146 
L 0.503904 147 
L 0.530075 148 
L 0.724386 149 
L 0.76482 150 
L 0.841914 151 
L 0.85532 152 
L 0.861894 153 
L 0.87028 154 
L 0.881995 155 
L 0.916013 156 
L 0.938821 157 
L 0.952133 158 
L 0.955225 159 
L 0.959714 160 
L 0.963342 161 
L 0.984605 162 
L 0.990653 163 
L 0.996837 164 
L 0.993734 165 
L 0.990229 166 
L 0.987475 167 
L 0.857431 168 
L 0.851855 169 
L 0.843542 170 
L 0.82246 171 
L 0.80905 172 
L 0.738579 173 
L 0.710427 174 
L 0.68205 175 
L 0.587867 176 
L 0.501159 177 
L 0.449655 178 
L 0.428905 179 
L 0.12859 180 
L 0.016586 181 
L -0.024098 182 
L -0.20972 183 
L -0.548283 184 
L -0.819523 185 
L -0.849555 186 
L -0.863341 187 
L -0.950356 188 
L -0.953845 189 
L -0.97462 190 
L -0.98008 191 
L -0.983805 192 
L -0.988174 193 
L -1 194 
L -0.992873 195 
L -0.923925 196 
L -0.90491 197 
L -0.806935 198 
L -0.789241 199 
L -0.748312 200 
L -0.73146 201 
L -0.676716 202 
L -0.657316 203 
L -0.516291 204 
L -0.496931 205 
L -0.434771 206 
L -0.420951 207 
L -0.368024 208 
L -0.338794 209 
L -0.292926 210 
L -0.216888 211 
L 0.070099 212 
L 0.132088 213 
L 0.248315 214 
L 0.25936 215 
L 0.278048 216 
L 0.302111 217 
L 0.462451 218 
L 0.635075 219 
L 0.643594 220 
L 0.66056 221 
L 0.692415 222 
L 0.884745 223 
L 0.944778 224 
L 0.992209 225 
L 0.996682 226 
L 0.999485 227 
L 0.999969 228 
L 0.998963 229 
L 0.900235 230 
L 0.759161 231 
L 0.748793 232 
L 0.600344 233 
L 0.589397 234 
L 0.540273 235 
L 0.516504 236 
L 0.507443 237 
L 0.459064 238 
L 0.446586 239 
L 0.282339 240 
L -0.125263 241 
L -0.476519 242 
L -0.513802 243 
L -0.5641 244 
L -0.573256 245 
L -0.595162 246 
L -0.603617 247 
L -0.617202 248 
L -0.694947 249 
L -0.84527 250 
L -0.960171 251 
L -0.962997 252 
L -0.990702 253 
L -0.921013 254 
L -0.896515 255 
L -0.886914 256 
L -0.820704 257 
L -0.763481 258 
L -0.755819 259 
L -0.680197 260 
L -0.611524 261 
L -0.59234 262 
L -0.578443 263 
L -0.252222 264 
L -0.072054 265 
L -0.036436 266 
L 0.067391 267 
L 0.286328 268 
L 0.313964 269 
L 0.346959 270 
L 0.368556 271 
L 0.469504 272 
L 0.620123 273 
L 0.702007 274 
L 0.741243 275 
L 0.77007 276 
L 0.806229 277 
L 0.844062 278 
L 0.854592 279 
L 0.871208 280 
L 0.877515 281 
L 0.918696 282 
L 0.926745 283 
L 0.952555 284 
L 0.963297 285 
L 0.998118 286 
L 0.989486 287 
L 0.928044 288 
L 0.883347 289 
L 0.666493 290 
L 0.656681 291 
L 0.634477 292 
L 0.573855 293.4 
z
" style="fill: #ffffff; stroke: #ffffff; stroke-width: 4; stroke-linejoin: miter"/>
   <path d="M 0 293.4 
L 1 293.805882 
L 2 294.033334 
L 3 294.047445 
L 4 294.27623 
L 5 294.293739 
L 6 294.368013 
L 7 294.39999 
L 8 294.397615 
L 9 294.394661 
L 10 294.384802 
L 11 294.376042 
L 12 294.37328 
L 13 294.358102 
L 14 294.338577 
L 15 294.287056 
L 16 294.198195 
L 17 294.024688 
L 18 294.013918 
L 19 293.971384 
L 20 293.949139 
L 21 293.933455 
L 22 293.876419 
L 23 293.860576 
L 24 293.848085 
L 25 293.828689 
L 26 293.775414 
L 27 293.764448 
L 28 293.405127 
L 29 293.369351 
L 30 293.359662 
L 31 293.305259 
L 32 293.245022 
L 33 293.186212 
L 34 293.049362 
L 35 293.027352 
L 36 292.916758 
L 37 292.826223 
L 38 292.801703 
L 39 292.652012 
L 40 292.613711 
L 41 292.60674 
L 42 292.581764 
L 43 292.574777 
L 44 292.500201 
L 45 292.47292 
L 46 292.432854 
L 47 292.425443 
L 48 292.42317 
L 49 292.415303 
L 50 292.411496 
L 51 292.406899 
L 52 292.418734 
L 53 292.425146 
L 54 292.431954 
L 55 292.435906 
L 56 292.514012 
L 57 292.627059 
L 58 292.829603 
L 59 293.161321 
L 60 293.296492 
L 61 293.313876 
L 62 293.341519 
L 63 293.354717 
L 64 293.413648 
L 65 293.431581 
L 66 293.685076 
L 67 293.78153 
L 68 293.857293 
L 69 294.101758 
L 70 294.112346 
L 71 294.229395 
L 72 294.245372 
L 73 294.269985 
L 74 294.337169 
L 75 294.38326 
L 76 294.399859 
L 77 294.342597 
L 78 294.338218 
L 79 294.334066 
L 80 294.271341 
L 81 294.259351 
L 82 294.231416 
L 83 294.096389 
L 84 294.084735 
L 85 293.734558 
L 86 293.41241 
L 87 293.063037 
L 88 292.990302 
L 89 292.942781 
L 90 292.751873 
L 91 292.737419 
L 92 292.651599 
L 93 292.552462 
L 94 292.458975 
L 95 292.454343 
L 96 292.410426 
L 97 292.40352 
L 98 292.40089 
L 99 292.400434 
L 100 292.414386 
L 101 292.437089 
L 102 292.445897 
L 103 292.468671 
L 104 292.474613 
L 105 292.551849 
L 106 292.559439 
L 107 292.684368 
L 108 292.759556 
L 109 292.780118 
L 110 292.871755 
L 111 293.129261 
L 112 293.159473 
L 113 293.497687 
L 114 293.594031 
L 115 293.654826 
L 116 293.788633 
L 117 293.801407 
L 118 293.819804 
L 119 293.841827 
L 120 294.08465 
L 121 294.101074 
L 122 294.136566 
L 123 294.154093 
L 124 294.213298 
L 125 294.304909 
L 126 294.30976 
L 127 294.315291 
L 128 294.319185 
L 129 294.342328 
L 130 294.361052 
L 131 294.397767 
L 132 294.398476 
L 133 294.39944 
L 134 294.362925 
L 135 294.184436 
L 136 294.143356 
L 137 294.108746 
L 138 294.016439 
L 139 293.970814 
L 140 293.754362 
L 141 293.573214 
L 142 293.38808 
L 143 293.317791 
L 144 293.306312 
L 145 293.218051 
L 146 293.041751 
L 147 292.944469 
L 148 292.892697 
L 149 292.696622 
L 150 292.583634 
L 151 292.475424 
L 152 292.42376 
L 153 292.416778 
L 154 292.407773 
L 155 292.400577 
L 156 292.402048 
L 157 292.424441 
L 158 292.493919 
L 159 292.512035 
L 160 292.550333 
L 161 292.710826 
L 162 292.770736 
L 163 292.836176 
L 164 292.904487 
L 165 293.234049 
L 166 293.337859 
L 167 293.375524 
L 168 293.394342 
L 169 293.761013 
L 170 293.791012 
L 171 293.801025 
L 172 293.809951 
L 173 293.926657 
L 174 293.950915 
L 175 293.986511 
L 176 294.256541 
L 177 294.368193 
L 178 294.372622 
L 179 294.383288 
L 180 294.386912 
L 181 294.39605 
L 182 294.393612 
L 183 294.357853 
L 184 294.348281 
L 185 294.343817 
L 186 294.32838 
L 187 294.322727 
L 188 294.284336 
L 189 294.279694 
L 190 294.257627 
L 191 294.251957 
L 192 294.194755 
L 193 294.021801 
L 194 294.008161 
L 195 293.953703 
L 196 293.941227 
L 197 293.921351 
L 198 293.87223 
L 199 293.860359 
L 200 293.837524 
L 201 293.491554 
L 202 293.4037 
L 203 293.237352 
L 204 293.111901 
L 205 293.101378 
L 206 293.058954 
L 207 292.942043 
L 208 292.645707 
L 209 292.632491 
L 210 292.620171 
L 211 292.563825 
L 212 292.552601 
L 213 292.546355 
L 214 292.537403 
L 215 292.51907 
L 216 292.513639 
L 217 292.416333 
L 218 292.410689 
L 219 292.409678 
L 220 292.415499 
L 221 292.472684 
L 222 292.498261 
L 223 292.620256 
L 224 292.633896 
L 225 292.658216 
L 226 292.664979 
L 227 292.689214 
L 228 292.697362 
L 229 292.721148 
L 230 292.731526 
L 231 292.911005 
L 232 292.924537 
L 233 292.938326 
L 234 293.052109 
L 235 293.30117 
L 236 293.378426 
L 237 293.528389 
L 238 293.712445 
L 239 293.739697 
L 240 293.842911 
L 241 293.885564 
L 242 293.922044 
L 243 293.947327 
L 244 293.974345 
L 245 294.103043 
L 246 294.308162 
L 247 294.314581 
L 248 294.368757 
L 249 294.375834 
L 250 294.378659 
L 251 294.39178 
L 252 294.398373 
L 253 294.399427 
L 254 294.399926 
L 255 294.399805 
L 256 294.399389 
L 257 294.361339 
L 258 294.35832 
L 259 294.351801 
L 260 294.344349 
L 261 294.325234 
L 262 294.317679 
L 263 294.29309 
L 264 294.266923 
L 265 294.250833 
L 266 294.218321 
L 267 294.161973 
L 268 294.141877 
L 269 294.093038 
L 270 294.044542 
L 271 293.830876 
L 272 293.779547 
L 273 293.76532 
L 274 293.699411 
L 275 293.681267 
L 276 293.309943 
L 277 293.209096 
L 278 293.199483 
L 279 292.976993 
L 280 292.920586 
L 281 292.674265 
L 282 292.664118 
L 283 292.611544 
L 284 292.603507 
L 285 292.590288 
L 286 292.582346 
L 287 292.50242 
L 288 292.407001 
L 289 292.402178 
L 290 292.400706 
L 291 292.412272 
L 292 292.414596 
L 293.4 292.418679 
L 292.425041 292.4 
L 292.429149 291.4 
L 292.435216 290.4 
L 292.450439 289.4 
L 292.477486 288.4 
L 292.484222 287.4 
L 292.546843 286.4 
L 292.55317 285.4 
L 292.559744 284.4 
L 292.675755 283.4 
L 292.761956 282.4 
L 292.803242 281.4 
L 292.854846 280.4 
L 292.890364 279.4 
L 292.901763 278.4 
L 293.019447 277.4 
L 293.108069 276.4 
L 293.170387 275.4 
L 293.288238 274.4 
L 293.35085 273.4 
L 293.43308 272.4 
L 293.472275 271.4 
L 293.483617 270.4 
L 293.56946 269.4 
L 293.582933 268.4 
L 293.59621 267.4 
L 293.607714 266.4 
L 293.834671 265.4 
L 293.844199 264.4 
L 293.862358 263.4 
L 293.951261 262.4 
L 294.024355 261.4 
L 294.265166 260.4 
L 294.277704 259.4 
L 294.343945 258.4 
L 294.369583 257.4 
L 294.373114 256.4 
L 294.396724 255.4 
L 294.399946 254.4 
L 294.379972 253.4 
L 294.37098 252.4 
L 294.366602 251.4 
L 294.359344 250.4 
L 294.354175 249.4 
L 294.340731 248.4 
L 294.311556 247.4 
L 294.303834 246.4 
L 294.288313 245.4 
L 294.06768 244.4 
L 294.041252 243.4 
L 293.761834 242.4 
L 293.489386 241.4 
L 293.464442 240.4 
L 293.418428 239.4 
L 293.358594 238.4 
L 292.985781 237.4 
L 292.903367 236.4 
L 292.890841 235.4 
L 292.796934 234.4 
L 292.76552 233.4 
L 292.676289 232.4 
L 292.668221 231.4 
L 292.646481 230.4 
L 292.502121 229.4 
L 292.467126 228.4 
L 292.454127 227.4 
L 292.432245 226.4 
L 292.400233 225.4 
L 292.400589 224.4 
L 292.404772 223.4 
L 292.420701 222.4 
L 292.424054 221.4 
L 292.488013 220.4 
L 292.608469 219.4 
L 292.618248 218.4 
L 292.690805 217.4 
L 292.730783 216.4 
L 292.879231 215.4 
L 292.902424 214.4 
L 292.931179 213.4 
L 292.949895 212.4 
L 293.155883 211.4 
L 293.180871 210.4 
L 293.192851 209.4 
L 293.308653 208.4 
L 293.323112 207.4 
L 293.390336 206.4 
L 293.707394 205.4 
L 293.750099 204.4 
L 293.773684 203.4 
L 293.90207 202.4 
L 294.176249 201.4 
L 294.288343 200.4 
L 294.312373 199.4 
L 294.322446 198.4 
L 294.372042 197.4 
L 294.385455 196.4 
L 294.390271 195.4 
L 294.397251 194.4 
L 294.399724 193.4 
L 294.399452 192.4 
L 294.390757 191.4 
L 294.305045 190.4 
L 294.295366 189.4 
L 294.28921 188.4 
L 294.26745 187.4 
L 294.108855 186.4 
L 293.907289 185.4 
L 293.893365 184.4 
L 293.783746 183.4 
L 293.405656 182.4 
L 293.244144 181.4 
L 293.199464 180.4 
L 293.085964 179.4 
L 292.80375 178.4 
L 292.792869 177.4 
L 292.559807 176.4 
L 292.451013 175.4 
L 292.441943 174.4 
L 292.402796 173.4 
L 292.404205 172.4 
L 292.429764 171.4 
L 292.432301 170.4 
L 292.436377 169.4 
L 292.442069 168.4 
L 292.444974 167.4 
L 292.448381 166.4 
L 292.455842 165.4 
L 292.459212 164.4 
L 292.465615 163.4 
L 292.553193 162.4 
L 292.562081 161.4 
L 292.570861 160.4 
L 292.585318 159.4 
L 292.602627 158.4 
L 292.612575 157.4 
L 292.644292 156.4 
L 292.656884 155.4 
L 292.89944 154.4 
L 292.942232 153.4 
L 292.951224 152.4 
L 292.978247 151.4 
L 293.021091 150.4 
L 293.032642 149.4 
L 293.103838 148.4 
L 293.285366 147.4 
L 293.345858 146.4 
L 293.363122 145.4 
L 293.692962 144.4 
L 293.704445 143.4 
L 293.715812 142.4 
L 293.975015 141.4 
L 293.997136 140.4 
L 294.040916 139.4 
L 294.053528 138.4 
L 294.061947 137.4 
L 294.190757 136.4 
L 294.28652 135.4 
L 294.369747 134.4 
L 294.396688 133.4 
L 294.398582 132.4 
L 294.399597 131.4 
L 294.37146 130.4 
L 294.21717 129.4 
L 294.19223 128.4 
L 294.148146 127.4 
L 294.019477 126.4 
L 293.843701 125.4 
L 293.797833 124.4 
L 293.778795 123.4 
L 293.719351 122.4 
L 293.650219 121.4 
L 293.399506 120.4 
L 293.376113 119.4 
L 293.348137 118.4 
L 293.33307 117.4 
L 293.26685 116.4 
L 293.229799 115.4 
L 293.031923 114.4 
L 292.962739 113.4 
L 292.948402 112.4 
L 292.937051 111.4 
L 292.927176 110.4 
L 292.904232 109.4 
L 292.894262 108.4 
L 292.880991 107.4 
L 292.834415 106.4 
L 292.79236 105.4 
L 292.701389 104.4 
L 292.680541 103.4 
L 292.654818 102.4 
L 292.647443 101.4 
L 292.615633 100.4 
L 292.607459 99.4 
L 292.568669 98.4 
L 292.505727 97.4 
L 292.489792 96.4 
L 292.462187 95.4 
L 292.449551 94.4 
L 292.446416 93.4 
L 292.441741 92.4 
L 292.434688 91.4 
L 292.412673 90.4 
L 292.429829 89.4 
L 292.460117 88.4 
L 292.486067 87.4 
L 292.58473 86.4 
L 292.592365 85.4 
L 292.60185 84.4 
L 292.737442 83.4 
L 292.74609 82.4 
L 292.839243 81.4 
L 292.964055 80.4 
L 292.987823 79.4 
L 293.060185 78.4 
L 293.321981 77.4 
L 293.40248 76.4 
L 293.417418 75.4 
L 293.433973 74.4 
L 293.574969 73.4 
L 293.590047 72.4 
L 293.692429 71.4 
L 293.915235 70.4 
L 293.93378 69.4 
L 293.986133 68.4 
L 294.028108 67.4 
L 294.147956 66.4 
L 294.346789 65.4 
L 294.355691 64.4 
L 294.367335 63.4 
L 294.371691 62.4 
L 294.381067 61.4 
L 294.382012 60.4 
L 294.298311 59.4 
L 294.291193 58.4 
L 294.281283 57.4 
L 294.257945 56.4 
L 294.18218 55.4 
L 294.070037 54.4 
L 294.021607 53.4 
L 294.007873 52.4 
L 293.871882 51.4 
L 293.765712 50.4 
L 293.756298 49.4 
L 293.691373 48.4 
L 293.313976 47.4 
L 292.978634 46.4 
L 292.907284 45.4 
L 292.781849 44.4 
L 292.717769 43.4 
L 292.705249 42.4 
L 292.572135 41.4 
L 292.522355 40.4 
L 292.508383 39.4 
L 292.501649 38.4 
L 292.440917 37.4 
L 292.428224 36.4 
L 292.420335 35.4 
L 292.411974 34.4 
L 292.441436 33.4 
L 292.445936 32.4 
L 292.451842 31.4 
L 292.461213 30.4 
L 292.481289 29.4 
L 292.59191 28.4 
L 292.609727 27.4 
L 292.676526 26.4 
L 292.693059 25.4 
L 292.745274 24.4 
L 292.887635 23.4 
L 292.933811 22.4 
L 292.957778 21.4 
L 292.980021 20.4 
L 292.991271 19.4 
L 293.030865 18.4 
L 293.051766 17.4 
L 293.063273 16.4 
L 293.128419 15.4 
L 293.227278 14.4 
L 293.634567 13.4 
L 293.886231 12.4 
L 293.919411 11.4 
L 293.94112 10.4 
L 293.968916 9.4 
L 294.09014 8.4 
L 294.112357 7.4 
L 294.156872 6.4 
L 294.195026 5.4 
L 294.203729 4.4 
L 294.210007 3.4 
L 294.300122 2.4 
L 294.357794 1.4 
L 294.372156 0 
L 292.4 -0.989723 
L 291.4 -0.904743 
L 290.4 -0.869093 
L 289.4 -0.864287 
L 288.4 -0.828038 
L 287.4 -0.788522 
L 286.4 -0.695807 
L 285.4 -0.66247 
L 284.4 -0.644188 
L 283.4 -0.493823 
L 282.4 -0.386558 
L 281.4 -0.377795 
L 280.4 -0.121742 
L 279.4 -0.091485 
L 278.4 -0.081215 
L 277.4 -0.006896 
L 276.4 0.014848 
L 275.4 0.025251 
L 274.4 0.165243 
L 273.4 0.343268 
L 272.4 0.356329 
L 271.4 0.365838 
L 270.4 0.416601 
L 269.4 0.444338 
L 268.4 0.459826 
L 267.4 0.704035 
L 266.4 0.767716 
L 265.4 0.789144 
L 264.4 0.95598 
L 263.4 0.96062 
L 262.4 0.965221 
L 261.4 0.983762 
L 260.4 0.999686 
L 259.4 0.998809 
L 258.4 0.943039 
L 257.4 0.935938 
L 256.4 0.926768 
L 255.4 0.922988 
L 254.4 0.799165 
L 253.4 0.712207 
L 252.4 0.70195 
L 251.4 0.689854 
L 250.4 0.667961 
L 249.4 0.412946 
L 248.4 0.350946 
L 247.4 0.203046 
L 246.4 0.179789 
L 245.4 -0.022996 
L 244.4 -0.060429 
L 243.4 -0.167872 
L 242.4 -0.18235 
L 241.4 -0.273617 
L 240.4 -0.287675 
L 239.4 -0.461565 
L 238.4 -0.470358 
L 237.4 -0.495107 
L 236.4 -0.666713 
L 235.4 -0.788477 
L 234.4 -0.853912 
L 233.4 -0.947763 
L 232.4 -0.99675 
L 231.4 -0.998794 
L 230.4 -0.999334 
L 229.4 -0.999966 
L 228.4 -0.986796 
L 227.4 -0.971009 
L 226.4 -0.946631 
L 225.4 -0.915711 
L 224.4 -0.703723 
L 223.4 -0.692942 
L 222.4 -0.632828 
L 221.4 -0.617934 
L 220.4 -0.425289 
L 219.4 -0.360199 
L 218.4 -0.34406 
L 217.4 -0.298062 
L 216.4 -0.221339 
L 215.4 -0.189683 
L 214.4 0.032153 
L 213.4 0.074708 
L 212.4 0.097288 
L 211.4 0.10728 
L 210.4 0.162167 
L 209.4 0.48888 
L 208.4 0.539344 
L 207.4 0.655905 
L 206.4 0.686671 
L 205.4 0.820352 
L 204.4 0.903367 
L 203.4 0.908786 
L 202.4 0.938773 
L 201.4 0.946568 
L 200.4 0.977485 
L 199.4 0.999919 
L 198.4 0.98377 
L 197.4 0.964598 
L 196.4 0.904111 
L 195.4 0.896338 
L 194.4 0.861804 
L 193.4 0.790533 
L 192.4 0.624179 
L 191.4 0.534181 
L 190.4 0.511002 
L 189.4 0.293452 
L 188.4 0.255634 
L 187.4 0.208902 
L 186.4 0.126062 
L 185.4 -0.161016 
L 184.4 -0.368731 
L 183.4 -0.377948 
L 182.4 -0.587169 
L 181.4 -0.638974 
L 180.4 -0.648965 
L 179.4 -0.75654 
L 178.4 -0.901188 
L 177.4 -0.976403 
L 176.4 -0.978477 
L 175.4 -0.999473 
L 174.4 -0.99783 
L 173.4 -0.996378 
L 172.4 -0.926461 
L 171.4 -0.911532 
L 170.4 -0.87394 
L 169.4 -0.86656 
L 168.4 -0.825824 
L 167.4 -0.783046 
L 166.4 -0.730883 
L 165.4 -0.70224 
L 164.4 -0.457875 
L 163.4 -0.414514 
L 162.4 -0.341598 
L 161.4 -0.28046 
L 160.4 -0.072572 
L 159.4 -0.053267 
L 158.4 -0.040345 
L 157.4 0.187017 
L 156.4 0.204441 
L 155.4 0.477719 
L 154.4 0.499408 
L 153.4 0.577001 
L 152.4 0.606095 
L 151.4 0.614761 
L 150.4 0.657581 
L 149.4 0.665412 
L 148.4 0.678982 
L 147.4 0.712659 
L 146.4 0.73541 
L 145.4 0.826923 
L 144.4 0.84001 
L 143.4 0.901509 
L 142.4 0.915135 
L 141.4 0.991741 
L 140.4 0.999836 
L 139.4 0.987209 
L 138.4 0.981219 
L 137.4 0.843649 
L 136.4 0.616801 
L 135.4 0.554815 
L 134.4 0.22322 
L 133.4 0.040813 
L 132.4 0.023378 
L 131.4 -0.138744 
L 130.4 -0.168508 
L 129.4 -0.218986 
L 128.4 -0.289706 
L 127.4 -0.305113 
L 126.4 -0.414069 
L 125.4 -0.464297 
L 124.4 -0.478079 
L 123.4 -0.546832 
L 122.4 -0.567421 
L 121.4 -0.683896 
L 120.4 -0.718 
L 119.4 -0.903333 
L 118.4 -0.995595 
L 117.4 -0.99946 
L 116.4 -0.993031 
L 115.4 -0.957747 
L 114.4 -0.918772 
L 113.4 -0.895863 
L 112.4 -0.871025 
L 111.4 -0.866273 
L 110.4 -0.770916 
L 109.4 -0.709318 
L 108.4 -0.699425 
L 107.4 -0.572741 
L 106.4 -0.376207 
L 105.4 -0.358226 
L 104.4 -0.302048 
L 103.4 -0.272202 
L 102.4 -0.202348 
L 101.4 -0.159305 
L 100.4 -0.100137 
L 99.4 -0.014292 
L 98.4 0.014453 
L 97.4 0.048175 
L 96.4 0.091788 
L 95.4 0.223642 
L 94.4 0.253846 
L 93.4 0.27542 
L 92.4 0.393682 
L 91.4 0.464498 
L 90.4 0.777692 
L 89.4 0.804505 
L 88.4 0.849312 
L 87.4 0.884221 
L 86.4 0.937508 
L 85.4 0.942706 
L 84.4 0.999457 
L 83.4 0.995559 
L 82.4 0.985266 
L 81.4 0.978682 
L 80.4 0.948557 
L 79.4 0.944495 
L 78.4 0.875473 
L 77.4 0.868379 
L 76.4 0.8413 
L 75.4 0.773572 
L 74.4 0.743947 
L 73.4 0.734175 
L 72.4 0.726146 
L 71.4 0.670974 
L 70.4 0.349453 
L 69.4 0.275425 
L 68.4 0.045969 
L 67.4 -0.001576 
L 66.4 -0.282188 
L 65.4 -0.326601 
L 64.4 -0.395174 
L 63.4 -0.600616 
L 62.4 -0.830441 
L 61.4 -0.916627 
L 60.4 -0.962852 
L 59.4 -0.982776 
L 58.4 -0.986945 
L 57.4 -0.999154 
L 56.4 -0.999719 
L 55.4 -0.932228 
L 54.4 -0.925216 
L 53.4 -0.823903 
L 52.4 -0.816284 
L 51.4 -0.793214 
L 50.4 -0.738479 
L 49.4 -0.729729 
L 48.4 -0.663526 
L 47.4 -0.655376 
L 46.4 -0.497648 
L 45.4 -0.454084 
L 44.4 -0.351662 
L 43.4 -0.335739 
L 42.4 -0.156646 
L 41.4 0.250887 
L 40.4 0.420668 
L 39.4 0.446619 
L 38.4 0.457771 
L 37.4 0.476783 
L 36.4 0.49323 
L 35.4 0.670298 
L 34.4 0.696588 
L 33.4 0.724002 
L 32.4 0.850208 
L 31.4 0.870893 
L 30.4 0.876612 
L 29.4 0.987799 
L 28.4 0.99753 
L 27.4 0.977394 
L 26.4 0.973657 
L 25.4 0.957915 
L 24.4 0.950722 
L 23.4 0.915213 
L 22.4 0.91093 
L 21.4 0.904157 
L 20.4 0.892137 
L 19.4 0.881812 
L 18.4 0.873957 
L 17.4 0.759957 
L 16.4 0.639988 
L 15.4 0.463084 
L 14.4 0.156875 
L 13.4 0.00092 
L 12.4 -0.011589 
L 11.4 -0.076363 
L 10.4 -0.086172 
L 9.4 -0.095839 
L 8.4 -0.488337 
L 7.4 -0.684929 
L 6.4 -0.792807 
L 5.4 -0.799338 
L 4.4 -0.826684 
L 3.4 -0.848695 
L 2.4 -0.923928 
L 1.4 -0.934261 
L 0 -0.98817 
L -0.993175 1 
L -0.954018 2 
L -0.893082 3 
L -0.884823 4 
L -0.871798 5 
L -0.86122 6 
L -0.766596 7 
L -0.441355 8 
L -0.418267 9 
L -0.096563 10 
L -0.064891 11 
L 0.073293 12 
L 0.377017 13 
L 0.440366 14 
L 0.451263 15 
L 0.482765 16 
L 0.498025 17 
L 0.685237 18 
L 0.712066 19 
L 0.767366 20 
L 0.81164 21 
L 0.849485 22 
L 0.862019 23 
L 0.876546 24 
L 0.968322 25 
L 0.97073 26 
L 0.978195 27 
L 0.988661 28 
L 1 29 
L 0.999938 30 
L 0.99123 31 
L 0.918746 32 
L 0.848726 33 
L 0.691429 34 
L 0.664755 35 
L 0.495505 36 
L 0.48455 37 
L 0.46075 38 
L 0.438115 39 
L 0.418928 40 
L 0.152474 41 
L -0.005128 42 
L -0.030933 43 
L -0.100166 44 
L -0.138895 45 
L -0.371323 46 
L -0.575139 47 
L -0.600856 48 
L -0.669216 49 
L -0.813109 50 
L -0.917198 51 
L -0.938762 52 
L -0.96669 53 
L -0.970113 54 
L -0.995868 55 
L -0.999647 56 
L -0.999991 57 
L -0.920301 58 
L -0.914782 59 
L -0.904652 60 
L -0.868758 61 
L -0.862732 62 
L -0.832853 63 
L -0.825557 64 
L -0.817634 65 
L -0.754651 66 
L -0.745036 67 
L -0.720978 68 
L -0.708341 69 
L -0.649961 70 
L -0.521396 71 
L -0.446613 72 
L -0.244367 73 
L -0.207304 74 
L -0.130704 75 
L 0.127902 76 
L 0.200449 77 
L 0.215142 78 
L 0.284386 79 
L 0.318736 80 
L 0.363946 81 
L 0.519627 82 
L 0.672267 83 
L 0.742221 84 
L 0.804357 85 
L 0.936083 86 
L 0.950914 87 
L 0.98113 88 
L 0.984359 89 
L 0.990216 90 
L 0.988813 91 
L 0.969868 92 
L 0.94374 93 
L 0.924557 94 
L 0.920343 95 
L 0.911834 96 
L 0.697088 97 
L 0.689422 98 
L 0.633232 99 
L 0.623248 100 
L 0.615839 101 
L 0.527273 102 
L 0.307174 103 
L 0.297443 104 
L 0.180455 105 
L -0.060748 106 
L -0.111163 107 
L -0.361431 108 
L -0.406347 109 
L -0.423556 110 
L -0.71087 111 
L -0.864058 112 
L -0.946428 113 
L -0.952284 114 
L -0.957038 115 
L -0.965163 116 
L -0.967947 117 
L -0.977846 118 
L -0.981016 119 
L -0.983422 120 
L -0.986616 121 
L -0.989303 122 
L -0.994455 123 
L -0.998385 124 
L -0.998875 125 
L -0.975345 126 
L -0.971458 127 
L -0.90455 128 
L -0.898327 129 
L -0.847148 130 
L -0.8281 131 
L -0.695934 132 
L -0.641021 133 
L -0.599801 134 
L -0.585361 135 
L -0.476352 136 
L -0.446005 137 
L -0.412941 138 
L -0.188493 139 
L -0.086553 140 
L -0.072717 141 
L 0.088069 142 
L 0.123268 143 
L 0.133045 144 
L 0.234853 145 
L 0.252665 146 
L 0.503904 147 
L 0.530075 148 
L 0.724386 149 
L 0.76482 150 
L 0.841914 151 
L 0.85532 152 
L 0.861894 153 
L 0.87028 154 
L 0.881995 155 
L 0.916013 156 
L 0.938821 157 
L 0.952133 158 
L 0.955225 159 
L 0.959714 160 
L 0.963342 161 
L 0.984605 162 
L 0.990653 163 
L 0.996837 164 
L 0.993734 165 
L 0.990229 166 
L 0.987475 167 
L 0.857431 168 
L 0.851855 169 
L 0.843542 170 
L 0.82246 171 
L 0.80905 172 
L 0.738579 173 
L 0.710427 174 
L 0.68205 175 
L 0.587867 176 
L 0.501159 177 
L 0.449655 178 
L 0.428905 179 
L 0.12859 180 
L 0.016586 181 
L -0.024098 182 
L -0.20972 183 
L -0.548283 184 
L -0.819523 185 
L -0.849555 186 
L -0.863341 187 
L -0.950356 188 
L -0.953845 189 
L -0.97462 190 
L -0.98008 191 
L -0.983805 192 
L -0.988174 193 
L -1 194 
L -0.992873 195 
L -0.923925 196 
L -0.90491 197 
L -0.806935 198 
L -0.789241 199 
L -0.748312 200 
L -0.73146 201 
L -0.676716 202 
L -0.657316 203 
L -0.516291 204 
L -0.496931 205 
L -0.434771 206 
L -0.420951 207 
L -0.368024 208 
L -0.338794 209 
L -0.292926 210 
L -0.216888 211 
L 0.070099 212 
L 0.132088 213 
L 0.248315 214 
L 0.25936 215 
L 0.278048 216 
L 0.302111 217 
L 0.462451 218 
L 0.635075 219 
L 0.643594 220 
L 0.66056 221 
L 0.692415 222 
L 0.884745 223 
L 0.944778 224 
L 0.992209 225 
L 0.996682 226 
L 0.999485 227 
L 0.999969 228 
L 0.998963 229 
L 0.900235 230 
L 0.759161 231 
L 0.748793 232 
L 0.600344 233 
L 0.589397 234 
L 0.540273 235 
L 0.516504 236 
L 0.507443 237 
L 0.459064 238 
L 0.446586 239 
L 0.282339 240 
L -0.125263 241 
L -0.476519 242 
L -0.513802 243 
L -0.5641 244 
L -0.573256 245 
L -0.595162 246 
L -0.603617 247 
L -0.617202 248 
L -0.694947 249 
L -0.84527 250 
L -0.960171 251 
L -0.962997 252 
L -0.990702 253 
L -0.921013 254 
L -0.896515 255 
L -0.886914 256 
L -0.820704 257 
L -0.763481 258 
L -0.755819 259 
L -0.680197 260 
L -0.611524 261 
L -0.59234 262 
L -0.578443 263 
L -0.252222 264 
L -0.072054 265 
L -0.036436 266 
L 0.067391 267 
L 0.286328 268 
L 0.313964 269 
L 0.346959 270 
L 0.368556 271 
L 0.469504 272 
L 0.620123 273 
L 0.702007 274 
L 0.741243 275 
L 0.77007 276 
L 0.806229 277 
L 0.844062 278 
L 0.854592 279 
L 0.871208 280 
L 0.877515 281 
L 0.918696 282 
L 0.926745 283 
L 0.952555 284 
L 0.963297 285 
L 0.998118 286 
L 0.989486 287 
L 0.928044 288 
L 0.883347 289 
L 0.666493 290 
L 0.656681 291 
L 0.634477 292 
L 0.573855 293.4 
z
" style="fill: #ffffff"/>
   <g id="axes_1">
    <path d="M 19.881818 19.881818 
L 20.881818 20.2877 
L 21.881818 20.515153 
L 22.881818 20.529263 
L 23.881818 20.758048 
L 24.881818 20.775557 
L 25.881818 20.849831 
L 26.881818 20.881808 
L 27.881818 20.879433 
L 28.881818 20.876479 
L 29.881818 20.86662 
L 30.881818 20.85786 
L 31.881818 20.855098 
L 32.881818 20.83992 
L 33.881818 20.820395 
L 34.881818 20.768874 
L 35.881818 20.680013 
L 36.881818 20.506506 
L 37.881818 20.495736 
L 38.881818 20.453202 
L 39.881818 20.430957 
L 40.881818 20.415274 
L 41.881818 20.358237 
L 42.881818 20.342394 
L 43.881818 20.329903 
L 44.881818 20.310507 
L 45.881818 20.257232 
L 46.881818 20.246266 
L 47.881818 19.886945 
L 48.881818 19.851169 
L 49.881818 19.84148 
L 50.881818 19.787077 
L 51.881818 19.726841 
L 52.881818 19.66803 
L 53.881818 19.53118 
L 54.881818 19.50917 
L 55.881818 19.398577 
L 56.881818 19.308041 
L 57.881818 19.283521 
L 58.881818 19.13383 
L 59.881818 19.095529 
L 60.881818 19.088558 
L 61.881818 19.063582 
L 62.881818 19.056595 
L 63.881818 18.982019 
L 64.881818 18.954738 
L 65.881818 18.914672 
L 66.881818 18.907261 
L 67.881818 18.904988 
L 68.881818 18.897121 
L 69.881818 18.893314 
L 70.881818 18.888717 
L 71.881818 18.900552 
L 72.881818 18.906964 
L 73.881818 18.913772 
L 74.881818 18.917725 
L 75.881818 18.99583 
L 76.881818 19.108877 
L 77.881818 19.311421 
L 78.881818 19.643139 
L 79.881818 19.77831 
L 80.881818 19.795695 
L 81.881818 19.823337 
L 82.881818 19.836535 
L 83.881818 19.895466 
L 84.881818 19.913399 
L 85.881818 20.166895 
L 86.881818 20.263348 
L 87.881818 20.339111 
L 88.881818 20.583576 
L 89.881818 20.594164 
L 90.881818 20.711213 
L 91.881818 20.72719 
L 92.881818 20.751803 
L 93.881818 20.818987 
L 94.881818 20.865078 
L 95.881818 20.881677 
L 96.881818 20.824415 
L 97.881818 20.820037 
L 98.881818 20.815885 
L 99.881818 20.753159 
L 100.881818 20.741169 
L 101.881818 20.713234 
L 102.881818 20.578207 
L 103.881818 20.566554 
L 104.881818 20.216377 
L 105.881818 19.894228 
L 106.881818 19.544855 
L 107.881818 19.47212 
L 108.881818 19.424599 
L 109.881818 19.233691 
L 110.881818 19.219237 
L 111.881818 19.133417 
L 112.881818 19.03428 
L 113.881818 18.940793 
L 114.881818 18.936162 
L 115.881818 18.892244 
L 116.881818 18.885338 
L 117.881818 18.882708 
L 118.881818 18.882252 
L 119.881818 18.896204 
L 120.881818 18.918907 
L 121.881818 18.927715 
L 122.881818 18.950489 
L 123.881818 18.956431 
L 124.881818 19.033667 
L 125.881818 19.041257 
L 126.881818 19.166187 
L 127.881818 19.241374 
L 128.881818 19.261936 
L 129.881818 19.353573 
L 130.881818 19.611079 
L 131.881818 19.641291 
L 132.881818 19.979505 
L 133.881818 20.075849 
L 134.881818 20.136644 
L 135.881818 20.270452 
L 136.881818 20.283226 
L 137.881818 20.301623 
L 138.881818 20.323645 
L 139.881818 20.566468 
L 140.881818 20.582892 
L 141.881818 20.618384 
L 142.881818 20.635911 
L 143.881818 20.695116 
L 144.881818 20.786727 
L 145.881818 20.791578 
L 146.881818 20.797109 
L 147.881818 20.801003 
L 148.881818 20.824146 
L 149.881818 20.84287 
L 150.881818 20.879585 
L 151.881818 20.880294 
L 152.881818 20.881258 
L 153.881818 20.844743 
L 154.881818 20.666254 
L 155.881818 20.625174 
L 156.881818 20.590564 
L 157.881818 20.498257 
L 158.881818 20.452632 
L 159.881818 20.23618 
L 160.881818 20.055033 
L 161.881818 19.869898 
L 162.881818 19.799609 
L 163.881818 19.78813 
L 164.881818 19.699869 
L 165.881818 19.52357 
L 166.881818 19.426287 
L 167.881818 19.374515 
L 168.881818 19.178441 
L 169.881818 19.065452 
L 170.881818 18.957243 
L 171.881818 18.905578 
L 172.881818 18.898596 
L 173.881818 18.889592 
L 174.881818 18.882395 
L 175.881818 18.883866 
L 176.881818 18.90626 
L 177.881818 18.975737 
L 178.881818 18.993853 
L 179.881818 19.032151 
L 180.881818 19.192644 
L 181.881818 19.252555 
L 182.881818 19.317994 
L 183.881818 19.386306 
L 184.881818 19.715867 
L 185.881818 19.819677 
L 186.881818 19.857343 
L 187.881818 19.87616 
L 188.881818 20.242832 
L 189.881818 20.27283 
L 190.881818 20.282843 
L 191.881818 20.291769 
L 192.881818 20.408475 
L 193.881818 20.432733 
L 194.881818 20.468329 
L 195.881818 20.738359 
L 196.881818 20.850011 
L 197.881818 20.85444 
L 198.881818 20.865107 
L 199.881818 20.86873 
L 200.881818 20.877869 
L 201.881818 20.875431 
L 202.881818 20.839671 
L 203.881818 20.8301 
L 204.881818 20.825635 
L 205.881818 20.810198 
L 206.881818 20.804545 
L 207.881818 20.766154 
L 208.881818 20.761512 
L 209.881818 20.739445 
L 210.881818 20.733775 
L 211.881818 20.676574 
L 212.881818 20.503619 
L 213.881818 20.489979 
L 214.881818 20.435522 
L 215.881818 20.423046 
L 216.881818 20.403169 
L 217.881818 20.354048 
L 218.881818 20.342178 
L 219.881818 20.319343 
L 220.881818 19.973372 
L 221.881818 19.885518 
L 222.881818 19.71917 
L 223.881818 19.593719 
L 224.881818 19.583196 
L 225.881818 19.540773 
L 226.881818 19.423862 
L 227.881818 19.127526 
L 228.881818 19.114309 
L 229.881818 19.101989 
L 230.881818 19.045644 
L 231.881818 19.034419 
L 232.881818 19.028173 
L 233.881818 19.019221 
L 234.881818 19.000888 
L 235.881818 18.995457 
L 236.881818 18.898152 
L 237.881818 18.892507 
L 238.881818 18.891496 
L 239.881818 18.897317 
L 240.881818 18.954503 
L 241.881818 18.980079 
L 242.881818 19.102074 
L 243.881818 19.115714 
L 244.881818 19.140034 
L 245.881818 19.146797 
L 246.881818 19.171033 
L 247.881818 19.17918 
L 248.881818 19.202966 
L 249.881818 19.213344 
L 250.881818 19.392823 
L 251.881818 19.406355 
L 252.881818 19.420144 
L 253.881818 19.533927 
L 254.881818 19.782988 
L 255.881818 19.860244 
L 256.881818 20.010208 
L 257.881818 20.194263 
L 258.881818 20.221515 
L 259.881818 20.324729 
L 260.881818 20.367382 
L 261.881818 20.403863 
L 262.881818 20.429145 
L 263.881818 20.456163 
L 264.881818 20.584862 
L 265.881818 20.78998 
L 266.881818 20.796399 
L 267.881818 20.850575 
L 268.881818 20.857652 
L 269.881818 20.860477 
L 270.881818 20.873598 
L 271.881818 20.880191 
L 273.518182 20.881245 
L 272.518256 20.881818 
L 272.518377 21.881818 
L 272.518793 22.881818 
L 272.556843 23.881818 
L 272.559862 24.881818 
L 272.566381 25.881818 
L 272.573833 26.881818 
L 272.592948 27.881818 
L 272.600502 28.881818 
L 272.625092 29.881818 
L 272.651259 30.881818 
L 272.667349 31.881818 
L 272.699861 32.881818 
L 272.756209 33.881818 
L 272.776305 34.881818 
L 272.825144 35.881818 
L 272.87364 36.881818 
L 273.087306 37.881818 
L 273.138634 38.881818 
L 273.152862 39.881818 
L 273.218771 40.881818 
L 273.236914 41.881818 
L 273.608239 42.881818 
L 273.709086 43.881818 
L 273.718698 44.881818 
L 273.941189 45.881818 
L 273.997596 46.881818 
L 274.243917 47.881818 
L 274.254064 48.881818 
L 274.306638 49.881818 
L 274.314675 50.881818 
L 274.327894 51.881818 
L 274.335835 52.881818 
L 274.415761 53.881818 
L 274.51118 54.881818 
L 274.516004 55.881818 
L 274.517476 56.881818 
L 274.505909 57.881818 
L 274.503586 58.881818 
L 274.499503 59.881818 
L 274.493141 60.881818 
L 274.489032 61.881818 
L 274.482965 62.881818 
L 274.467743 63.881818 
L 274.440696 64.881818 
L 274.43396 65.881818 
L 274.371339 66.881818 
L 274.365012 67.881818 
L 274.358438 68.881818 
L 274.242427 69.881818 
L 274.156226 70.881818 
L 274.11494 71.881818 
L 274.063336 72.881818 
L 274.027818 73.881818 
L 274.016419 74.881818 
L 273.898734 75.881818 
L 273.810112 76.881818 
L 273.747795 77.881818 
L 273.629944 78.881818 
L 273.567332 79.881818 
L 273.485102 80.881818 
L 273.445907 81.881818 
L 273.434565 82.881818 
L 273.348722 83.881818 
L 273.335248 84.881818 
L 273.321972 85.881818 
L 273.310468 86.881818 
L 273.083511 87.881818 
L 273.073983 88.881818 
L 273.055824 89.881818 
L 272.966921 90.881818 
L 272.893827 91.881818 
L 272.653016 92.881818 
L 272.640478 93.881818 
L 272.574237 94.881818 
L 272.548599 95.881818 
L 272.545067 96.881818 
L 272.521458 97.881818 
L 272.518235 98.881818 
L 272.53821 99.881818 
L 272.547202 100.881818 
L 272.55158 101.881818 
L 272.558837 102.881818 
L 272.564006 103.881818 
L 272.577451 104.881818 
L 272.606626 105.881818 
L 272.614348 106.881818 
L 272.629869 107.881818 
L 272.850502 108.881818 
L 272.87693 109.881818 
L 273.156348 110.881818 
L 273.428796 111.881818 
L 273.45374 112.881818 
L 273.499754 113.881818 
L 273.559587 114.881818 
L 273.932401 115.881818 
L 274.014815 116.881818 
L 274.027341 117.881818 
L 274.121247 118.881818 
L 274.152662 119.881818 
L 274.241892 120.881818 
L 274.249961 121.881818 
L 274.271701 122.881818 
L 274.416061 123.881818 
L 274.451056 124.881818 
L 274.464055 125.881818 
L 274.485936 126.881818 
L 274.517949 127.881818 
L 274.517593 128.881818 
L 274.51341 129.881818 
L 274.497481 130.881818 
L 274.494128 131.881818 
L 274.430169 132.881818 
L 274.309713 133.881818 
L 274.299934 134.881818 
L 274.227377 135.881818 
L 274.187399 136.881818 
L 274.038951 137.881818 
L 274.015758 138.881818 
L 273.987003 139.881818 
L 273.968287 140.881818 
L 273.762299 141.881818 
L 273.737311 142.881818 
L 273.72533 143.881818 
L 273.609529 144.881818 
L 273.59507 145.881818 
L 273.527846 146.881818 
L 273.210788 147.881818 
L 273.168083 148.881818 
L 273.144498 149.881818 
L 273.016112 150.881818 
L 272.741933 151.881818 
L 272.629838 152.881818 
L 272.605809 153.881818 
L 272.595736 154.881818 
L 272.54614 155.881818 
L 272.532727 156.881818 
L 272.527911 157.881818 
L 272.520931 158.881818 
L 272.518458 159.881818 
L 272.518729 160.881818 
L 272.527425 161.881818 
L 272.613137 162.881818 
L 272.622816 163.881818 
L 272.628972 164.881818 
L 272.650731 165.881818 
L 272.809327 166.881818 
L 273.010893 167.881818 
L 273.024817 168.881818 
L 273.134436 169.881818 
L 273.512526 170.881818 
L 273.674037 171.881818 
L 273.718718 172.881818 
L 273.832218 173.881818 
L 274.114432 174.881818 
L 274.125313 175.881818 
L 274.358374 176.881818 
L 274.467169 177.881818 
L 274.476238 178.881818 
L 274.515386 179.881818 
L 274.513977 180.881818 
L 274.488418 181.881818 
L 274.485881 182.881818 
L 274.481804 183.881818 
L 274.476112 184.881818 
L 274.473208 185.881818 
L 274.469801 186.881818 
L 274.46234 187.881818 
L 274.45897 188.881818 
L 274.452567 189.881818 
L 274.364989 190.881818 
L 274.3561 191.881818 
L 274.34732 192.881818 
L 274.332864 193.881818 
L 274.315555 194.881818 
L 274.305607 195.881818 
L 274.273889 196.881818 
L 274.261298 197.881818 
L 274.018742 198.881818 
L 273.97595 199.881818 
L 273.966957 200.881818 
L 273.939935 201.881818 
L 273.89709 202.881818 
L 273.88554 203.881818 
L 273.814344 204.881818 
L 273.632816 205.881818 
L 273.572324 206.881818 
L 273.55506 207.881818 
L 273.22522 208.881818 
L 273.213737 209.881818 
L 273.20237 210.881818 
L 272.943167 211.881818 
L 272.921046 212.881818 
L 272.877266 213.881818 
L 272.864654 214.881818 
L 272.856234 215.881818 
L 272.727425 216.881818 
L 272.631661 217.881818 
L 272.548435 218.881818 
L 272.521494 219.881818 
L 272.5196 220.881818 
L 272.518585 221.881818 
L 272.546722 222.881818 
L 272.701012 223.881818 
L 272.725952 224.881818 
L 272.770036 225.881818 
L 272.898705 226.881818 
L 273.074481 227.881818 
L 273.120348 228.881818 
L 273.139387 229.881818 
L 273.19883 230.881818 
L 273.267963 231.881818 
L 273.518676 232.881818 
L 273.542069 233.881818 
L 273.570045 234.881818 
L 273.585112 235.881818 
L 273.651332 236.881818 
L 273.688383 237.881818 
L 273.886259 238.881818 
L 273.955443 239.881818 
L 273.96978 240.881818 
L 273.981131 241.881818 
L 273.991006 242.881818 
L 274.01395 243.881818 
L 274.023919 244.881818 
L 274.037191 245.881818 
L 274.083767 246.881818 
L 274.125821 247.881818 
L 274.216793 248.881818 
L 274.237641 249.881818 
L 274.263364 250.881818 
L 274.270739 251.881818 
L 274.302549 252.881818 
L 274.310723 253.881818 
L 274.349512 254.881818 
L 274.412454 255.881818 
L 274.42839 256.881818 
L 274.455995 257.881818 
L 274.46863 258.881818 
L 274.471766 259.881818 
L 274.47644 260.881818 
L 274.483494 261.881818 
L 274.505509 262.881818 
L 274.488353 263.881818 
L 274.458065 264.881818 
L 274.432115 265.881818 
L 274.333452 266.881818 
L 274.325816 267.881818 
L 274.316332 268.881818 
L 274.18074 269.881818 
L 274.172092 270.881818 
L 274.078938 271.881818 
L 273.954127 273.518182 
L 272.518182 273.930359 
L 271.518182 273.857997 
L 270.518182 273.596201 
L 269.518182 273.515702 
L 268.518182 273.500764 
L 267.518182 273.484209 
L 266.518182 273.343213 
L 265.518182 273.328135 
L 264.518182 273.225753 
L 263.518182 273.002947 
L 262.518182 272.984402 
L 261.518182 272.932049 
L 260.518182 272.890074 
L 259.518182 272.770225 
L 258.518182 272.571393 
L 257.518182 272.562491 
L 256.518182 272.550847 
L 255.518182 272.54649 
L 254.518182 272.537115 
L 253.518182 272.53617 
L 252.518182 272.619871 
L 251.518182 272.626988 
L 250.518182 272.636899 
L 249.518182 272.660237 
L 248.518182 272.736002 
L 247.518182 272.848145 
L 246.518182 272.896574 
L 245.518182 272.910309 
L 244.518182 273.0463 
L 243.518182 273.15247 
L 242.518182 273.161884 
L 241.518182 273.226809 
L 240.518182 273.604206 
L 239.518182 273.939548 
L 238.518182 274.010898 
L 237.518182 274.136333 
L 236.518182 274.200413 
L 235.518182 274.212932 
L 234.518182 274.346047 
L 233.518182 274.395827 
L 232.518182 274.409799 
L 231.518182 274.416533 
L 230.518182 274.477265 
L 229.518182 274.489958 
L 228.518182 274.497846 
L 227.518182 274.506208 
L 226.518182 274.476746 
L 225.518182 274.472246 
L 224.518182 274.46634 
L 223.518182 274.456969 
L 222.518182 274.436893 
L 221.518182 274.326272 
L 220.518182 274.308455 
L 219.518182 274.241656 
L 218.518182 274.225123 
L 217.518182 274.172908 
L 216.518182 274.030547 
L 215.518182 273.984371 
L 214.518182 273.960404 
L 213.518182 273.93816 
L 212.518182 273.926911 
L 211.518182 273.887316 
L 210.518182 273.866416 
L 209.518182 273.854909 
L 208.518182 273.789763 
L 207.518182 273.690904 
L 206.518182 273.283615 
L 205.518182 273.031951 
L 204.518182 272.998771 
L 203.518182 272.977062 
L 202.518182 272.949266 
L 201.518182 272.828042 
L 200.518182 272.805825 
L 199.518182 272.76131 
L 198.518182 272.723156 
L 197.518182 272.714453 
L 196.518182 272.708175 
L 195.518182 272.61806 
L 194.518182 272.560388 
L 193.518182 272.546026 
L 192.518182 272.528459 
L 191.518182 272.613439 
L 190.518182 272.649089 
L 189.518182 272.653894 
L 188.518182 272.690143 
L 187.518182 272.72966 
L 186.518182 272.822375 
L 185.518182 272.855711 
L 184.518182 272.873993 
L 183.518182 273.024359 
L 182.518182 273.131624 
L 181.518182 273.140387 
L 180.518182 273.39644 
L 179.518182 273.426697 
L 178.518182 273.436966 
L 177.518182 273.511286 
L 176.518182 273.53303 
L 175.518182 273.543432 
L 174.518182 273.683425 
L 173.518182 273.86145 
L 172.518182 273.874511 
L 171.518182 273.88402 
L 170.518182 273.934783 
L 169.518182 273.96252 
L 168.518182 273.978008 
L 167.518182 274.222217 
L 166.518182 274.285898 
L 165.518182 274.307326 
L 164.518182 274.474162 
L 163.518182 274.478801 
L 162.518182 274.483403 
L 161.518182 274.501944 
L 160.518182 274.517868 
L 159.518182 274.516991 
L 158.518182 274.461221 
L 157.518182 274.45412 
L 156.518182 274.44495 
L 155.518182 274.44117 
L 154.518182 274.317347 
L 153.518182 274.230389 
L 152.518182 274.220132 
L 151.518182 274.208036 
L 150.518182 274.186143 
L 149.518182 273.931128 
L 148.518182 273.869128 
L 147.518182 273.721228 
L 146.518182 273.697971 
L 145.518182 273.495186 
L 144.518182 273.457753 
L 143.518182 273.35031 
L 142.518182 273.335832 
L 141.518182 273.244565 
L 140.518182 273.230507 
L 139.518182 273.056617 
L 138.518182 273.047824 
L 137.518182 273.023075 
L 136.518182 272.851469 
L 135.518182 272.729705 
L 134.518182 272.66427 
L 133.518182 272.570419 
L 132.518182 272.521431 
L 131.518182 272.519388 
L 130.518182 272.518848 
L 129.518182 272.518216 
L 128.518182 272.531385 
L 127.518182 272.547173 
L 126.518182 272.571551 
L 125.518182 272.60247 
L 124.518182 272.814459 
L 123.518182 272.825239 
L 122.518182 272.885353 
L 121.518182 272.900248 
L 120.518182 273.092893 
L 119.518182 273.157983 
L 118.518182 273.174122 
L 117.518182 273.22012 
L 116.518182 273.296843 
L 115.518182 273.328498 
L 114.518182 273.550335 
L 113.518182 273.59289 
L 112.518182 273.61547 
L 111.518182 273.625462 
L 110.518182 273.680349 
L 109.518182 274.007062 
L 108.518182 274.057526 
L 107.518182 274.174087 
L 106.518182 274.204853 
L 105.518182 274.338534 
L 104.518182 274.421549 
L 103.518182 274.426968 
L 102.518182 274.456954 
L 101.518182 274.46475 
L 100.518182 274.495667 
L 99.518182 274.518101 
L 98.518182 274.501952 
L 97.518182 274.482779 
L 96.518182 274.422293 
L 95.518182 274.414519 
L 94.518182 274.379986 
L 93.518182 274.308715 
L 92.518182 274.142361 
L 91.518182 274.052362 
L 90.518182 274.029184 
L 89.518182 273.811634 
L 88.518182 273.773816 
L 87.518182 273.727084 
L 86.518182 273.644244 
L 85.518182 273.357166 
L 84.518182 273.149451 
L 83.518182 273.140234 
L 82.518182 272.931013 
L 81.518182 272.879208 
L 80.518182 272.869217 
L 79.518182 272.761642 
L 78.518182 272.616993 
L 77.518182 272.541779 
L 76.518182 272.539705 
L 75.518182 272.518708 
L 74.518182 272.520352 
L 73.518182 272.521804 
L 72.518182 272.591721 
L 71.518182 272.60665 
L 70.518182 272.644241 
L 69.518182 272.651622 
L 68.518182 272.692358 
L 67.518182 272.735135 
L 66.518182 272.787299 
L 65.518182 272.815942 
L 64.518182 273.060307 
L 63.518182 273.103668 
L 62.518182 273.176584 
L 61.518182 273.237721 
L 60.518182 273.44561 
L 59.518182 273.464914 
L 58.518182 273.477837 
L 57.518182 273.705198 
L 56.518182 273.722623 
L 55.518182 273.995901 
L 54.518182 274.01759 
L 53.518182 274.095182 
L 52.518182 274.124277 
L 51.518182 274.132943 
L 50.518182 274.175762 
L 49.518182 274.183593 
L 48.518182 274.197164 
L 47.518182 274.230841 
L 46.518182 274.253592 
L 45.518182 274.345105 
L 44.518182 274.358192 
L 43.518182 274.419691 
L 42.518182 274.433317 
L 41.518182 274.509923 
L 40.518182 274.518018 
L 39.518182 274.50539 
L 38.518182 274.499401 
L 37.518182 274.361831 
L 36.518182 274.134983 
L 35.518182 274.072997 
L 34.518182 273.741402 
L 33.518182 273.558995 
L 32.518182 273.54156 
L 31.518182 273.379438 
L 30.518182 273.349674 
L 29.518182 273.299196 
L 28.518182 273.228476 
L 27.518182 273.213069 
L 26.518182 273.104113 
L 25.518182 273.053885 
L 24.518182 273.040102 
L 23.518182 272.97135 
L 22.518182 272.95076 
L 21.518182 272.834286 
L 19.881818 272.800182 
L 20.785152 272.518182 
L 20.877413 271.518182 
L 20.881278 270.518182 
L 20.874849 269.518182 
L 20.839565 268.518182 
L 20.800591 267.518182 
L 20.777681 266.518182 
L 20.752843 265.518182 
L 20.748091 264.518182 
L 20.652734 263.518182 
L 20.591137 262.518182 
L 20.581243 261.518182 
L 20.454559 260.518182 
L 20.258025 259.518182 
L 20.240044 258.518182 
L 20.183866 257.518182 
L 20.154021 256.518182 
L 20.084166 255.518182 
L 20.041123 254.518182 
L 19.981955 253.518182 
L 19.89611 252.518182 
L 19.867365 251.518182 
L 19.833643 250.518182 
L 19.790031 249.518182 
L 19.658176 248.518182 
L 19.627972 247.518182 
L 19.606398 246.518182 
L 19.488137 245.518182 
L 19.41732 244.518182 
L 19.104126 243.518182 
L 19.077313 242.518182 
L 19.032506 241.518182 
L 18.997597 240.518182 
L 18.94431 239.518182 
L 18.939112 238.518182 
L 18.882361 237.518182 
L 18.886259 236.518182 
L 18.896553 235.518182 
L 18.903136 234.518182 
L 18.933262 233.518182 
L 18.937323 232.518182 
L 19.006345 231.518182 
L 19.013439 230.518182 
L 19.040518 229.518182 
L 19.108246 228.518182 
L 19.137871 227.518182 
L 19.147643 226.518182 
L 19.155672 225.518182 
L 19.210844 224.518182 
L 19.532365 223.518182 
L 19.606394 222.518182 
L 19.835849 221.518182 
L 19.883394 220.518182 
L 20.164006 219.518182 
L 20.20842 218.518182 
L 20.276992 217.518182 
L 20.482434 216.518182 
L 20.712259 215.518182 
L 20.798445 214.518182 
L 20.84467 213.518182 
L 20.864594 212.518182 
L 20.868763 211.518182 
L 20.880973 210.518182 
L 20.881537 209.518182 
L 20.814046 208.518182 
L 20.807034 207.518182 
L 20.705721 206.518182 
L 20.698102 205.518182 
L 20.675032 204.518182 
L 20.620297 203.518182 
L 20.611547 202.518182 
L 20.545344 201.518182 
L 20.537195 200.518182 
L 20.379467 199.518182 
L 20.335902 198.518182 
L 20.23348 197.518182 
L 20.217558 196.518182 
L 20.038464 195.518182 
L 19.630932 194.518182 
L 19.46115 193.518182 
L 19.4352 192.518182 
L 19.424047 191.518182 
L 19.405035 190.518182 
L 19.388588 189.518182 
L 19.21152 188.518182 
L 19.18523 187.518182 
L 19.157816 186.518182 
L 19.03161 185.518182 
L 19.010925 184.518182 
L 19.005206 183.518182 
L 18.894019 182.518182 
L 18.884289 181.518182 
L 18.904424 180.518182 
L 18.908161 179.518182 
L 18.923903 178.518182 
L 18.931096 177.518182 
L 18.966605 176.518182 
L 18.970889 175.518182 
L 18.977661 174.518182 
L 18.989681 173.518182 
L 19.000007 172.518182 
L 19.007861 171.518182 
L 19.121861 170.518182 
L 19.24183 169.518182 
L 19.418734 168.518182 
L 19.724943 167.518182 
L 19.880898 166.518182 
L 19.893407 165.518182 
L 19.958181 164.518182 
L 19.96799 163.518182 
L 19.977658 162.518182 
L 20.370155 161.518182 
L 20.566747 160.518182 
L 20.674625 159.518182 
L 20.681156 158.518182 
L 20.708502 157.518182 
L 20.730513 156.518182 
L 20.805746 155.518182 
L 20.816079 154.518182 
L 20.869988 153.518182 
L 20.874993 152.518182 
L 20.835837 151.518182 
L 20.7749 150.518182 
L 20.766642 149.518182 
L 20.753616 148.518182 
L 20.743038 147.518182 
L 20.648414 146.518182 
L 20.323173 145.518182 
L 20.300085 144.518182 
L 19.978382 143.518182 
L 19.946709 142.518182 
L 19.808525 141.518182 
L 19.504801 140.518182 
L 19.441452 139.518182 
L 19.430555 138.518182 
L 19.399053 137.518182 
L 19.383793 136.518182 
L 19.196582 135.518182 
L 19.169753 134.518182 
L 19.114453 133.518182 
L 19.070178 132.518182 
L 19.032334 131.518182 
L 19.0198 130.518182 
L 19.005272 129.518182 
L 18.913496 128.518182 
L 18.911088 127.518182 
L 18.903623 126.518182 
L 18.893158 125.518182 
L 18.881818 124.518182 
L 18.88188 123.518182 
L 18.890588 122.518182 
L 18.963072 121.518182 
L 19.033092 120.518182 
L 19.190389 119.518182 
L 19.217063 118.518182 
L 19.386313 117.518182 
L 19.397268 116.518182 
L 19.421068 115.518182 
L 19.443703 114.518182 
L 19.462891 113.518182 
L 19.729344 112.518182 
L 19.886946 111.518182 
L 19.912752 110.518182 
L 19.981984 109.518182 
L 20.020714 108.518182 
L 20.253141 107.518182 
L 20.456957 106.518182 
L 20.482674 105.518182 
L 20.551034 104.518182 
L 20.694928 103.518182 
L 20.799016 102.518182 
L 20.82058 101.518182 
L 20.848508 100.518182 
L 20.851932 99.518182 
L 20.877686 98.518182 
L 20.881465 97.518182 
L 20.881809 96.518182 
L 20.802119 95.518182 
L 20.7966 94.518182 
L 20.786471 93.518182 
L 20.750576 92.518182 
L 20.744551 91.518182 
L 20.714671 90.518182 
L 20.707375 89.518182 
L 20.699452 88.518182 
L 20.636469 87.518182 
L 20.626854 86.518182 
L 20.602797 85.518182 
L 20.590159 84.518182 
L 20.531779 83.518182 
L 20.403214 82.518182 
L 20.328431 81.518182 
L 20.126185 80.518182 
L 20.089122 79.518182 
L 20.012522 78.518182 
L 19.753916 77.518182 
L 19.681369 76.518182 
L 19.666676 75.518182 
L 19.597432 74.518182 
L 19.563083 73.518182 
L 19.517872 72.518182 
L 19.362192 71.518182 
L 19.209551 70.518182 
L 19.139597 69.518182 
L 19.077461 68.518182 
L 18.945735 67.518182 
L 18.930904 66.518182 
L 18.900688 65.518182 
L 18.897459 64.518182 
L 18.891602 63.518182 
L 18.893005 62.518182 
L 18.91195 61.518182 
L 18.938078 60.518182 
L 18.957262 59.518182 
L 18.961475 58.518182 
L 18.969984 57.518182 
L 19.184731 56.518182 
L 19.192396 55.518182 
L 19.248586 54.518182 
L 19.25857 53.518182 
L 19.265979 52.518182 
L 19.354545 51.518182 
L 19.574644 50.518182 
L 19.584375 49.518182 
L 19.701363 48.518182 
L 19.942566 47.518182 
L 19.992981 46.518182 
L 20.243249 45.518182 
L 20.288166 44.518182 
L 20.305374 43.518182 
L 20.592688 42.518182 
L 20.745876 41.518182 
L 20.828246 40.518182 
L 20.834102 39.518182 
L 20.838856 38.518182 
L 20.846982 37.518182 
L 20.849765 36.518182 
L 20.859665 35.518182 
L 20.862835 34.518182 
L 20.865241 33.518182 
L 20.868434 32.518182 
L 20.871121 31.518182 
L 20.876273 30.518182 
L 20.880203 29.518182 
L 20.880694 28.518182 
L 20.857164 27.518182 
L 20.853277 26.518182 
L 20.786368 25.518182 
L 20.780145 24.518182 
L 20.728966 23.518182 
L 20.709918 22.518182 
L 20.577752 21.518182 
L 20.522839 19.881818 
" clip-path="url(#p6abe08f240)" style="fill: none; stroke: #ffffff; stroke-width: 4; stroke-linecap: square"/>
    <path d="M 19.881818 19.881818 
L 20.881818 20.2877 
L 21.881818 20.515153 
L 22.881818 20.529263 
L 23.881818 20.758048 
L 24.881818 20.775557 
L 25.881818 20.849831 
L 26.881818 20.881808 
L 27.881818 20.879433 
L 28.881818 20.876479 
L 29.881818 20.86662 
L 30.881818 20.85786 
L 31.881818 20.855098 
L 32.881818 20.83992 
L 33.881818 20.820395 
L 34.881818 20.768874 
L 35.881818 20.680013 
L 36.881818 20.506506 
L 37.881818 20.495736 
L 38.881818 20.453202 
L 39.881818 20.430957 
L 40.881818 20.415274 
L 41.881818 20.358237 
L 42.881818 20.342394 
L 43.881818 20.329903 
L 44.881818 20.310507 
L 45.881818 20.257232 
L 46.881818 20.246266 
L 47.881818 19.886945 
L 48.881818 19.851169 
L 49.881818 19.84148 
L 50.881818 19.787077 
L 51.881818 19.726841 
L 52.881818 19.66803 
L 53.881818 19.53118 
L 54.881818 19.50917 
L 55.881818 19.398577 
L 56.881818 19.308041 
L 57.881818 19.283521 
L 58.881818 19.13383 
L 59.881818 19.095529 
L 60.881818 19.088558 
L 61.881818 19.063582 
L 62.881818 19.056595 
L 63.881818 18.982019 
L 64.881818 18.954738 
L 65.881818 18.914672 
L 66.881818 18.907261 
L 67.881818 18.904988 
L 68.881818 18.897121 
L 69.881818 18.893314 
L 70.881818 18.888717 
L 71.881818 18.900552 
L 72.881818 18.906964 
L 73.881818 18.913772 
L 74.881818 18.917725 
L 75.881818 18.99583 
L 76.881818 19.108877 
L 77.881818 19.311421 
L 78.881818 19.643139 
L 79.881818 19.77831 
L 80.881818 19.795695 
L 81.881818 19.823337 
L 82.881818 19.836535 
L 83.881818 19.895466 
L 84.881818 19.913399 
L 85.881818 20.166895 
L 86.881818 20.263348 
L 87.881818 20.339111 
L 88.881818 20.583576 
L 89.881818 20.594164 
L 90.881818 20.711213 
L 91.881818 20.72719 
L 92.881818 20.751803 
L 93.881818 20.818987 
L 94.881818 20.865078 
L 95.881818 20.881677 
L 96.881818 20.824415 
L 97.881818 20.820037 
L 98.881818 20.815885 
L 99.881818 20.753159 
L 100.881818 20.741169 
L 101.881818 20.713234 
L 102.881818 20.578207 
L 103.881818 20.566554 
L 104.881818 20.216377 
L 105.881818 19.894228 
L 106.881818 19.544855 
L 107.881818 19.47212 
L 108.881818 19.424599 
L 109.881818 19.233691 
L 110.881818 19.219237 
L 111.881818 19.133417 
L 112.881818 19.03428 
L 113.881818 18.940793 
L 114.881818 18.936162 
L 115.881818 18.892244 
L 116.881818 18.885338 
L 117.881818 18.882708 
L 118.881818 18.882252 
L 119.881818 18.896204 
L 120.881818 18.918907 
L 121.881818 18.927715 
L 122.881818 18.950489 
L 123.881818 18.956431 
L 124.881818 19.033667 
L 125.881818 19.041257 
L 126.881818 19.166187 
L 127.881818 19.241374 
L 128.881818 19.261936 
L 129.881818 19.353573 
L 130.881818 19.611079 
L 131.881818 19.641291 
L 132.881818 19.979505 
L 133.881818 20.075849 
L 134.881818 20.136644 
L 135.881818 20.270452 
L 136.881818 20.283226 
L 137.881818 20.301623 
L 138.881818 20.323645 
L 139.881818 20.566468 
L 140.881818 20.582892 
L 141.881818 20.618384 
L 142.881818 20.635911 
L 143.881818 20.695116 
L 144.881818 20.786727 
L 145.881818 20.791578 
L 146.881818 20.797109 
L 147.881818 20.801003 
L 148.881818 20.824146 
L 149.881818 20.84287 
L 150.881818 20.879585 
L 151.881818 20.880294 
L 152.881818 20.881258 
L 153.881818 20.844743 
L 154.881818 20.666254 
L 155.881818 20.625174 
L 156.881818 20.590564 
L 157.881818 20.498257 
L 158.881818 20.452632 
L 159.881818 20.23618 
L 160.881818 20.055033 
L 161.881818 19.869898 
L 162.881818 19.799609 
L 163.881818 19.78813 
L 164.881818 19.699869 
L 165.881818 19.52357 
L 166.881818 19.426287 
L 167.881818 19.374515 
L 168.881818 19.178441 
L 169.881818 19.065452 
L 170.881818 18.957243 
L 171.881818 18.905578 
L 172.881818 18.898596 
L 173.881818 18.889592 
L 174.881818 18.882395 
L 175.881818 18.883866 
L 176.881818 18.90626 
L 177.881818 18.975737 
L 178.881818 18.993853 
L 179.881818 19.032151 
L 180.881818 19.192644 
L 181.881818 19.252555 
L 182.881818 19.317994 
L 183.881818 19.386306 
L 184.881818 19.715867 
L 185.881818 19.819677 
L 186.881818 19.857343 
L 187.881818 19.87616 
L 188.881818 20.242832 
L 189.881818 20.27283 
L 190.881818 20.282843 
L 191.881818 20.291769 
L 192.881818 20.408475 
L 193.881818 20.432733 
L 194.881818 20.468329 
L 195.881818 20.738359 
L 196.881818 20.850011 
L 197.881818 20.85444 
L 198.881818 20.865107 
L 199.881818 20.86873 
L 200.881818 20.877869 
L 201.881818 20.875431 
L 202.881818 20.839671 
L 203.881818 20.8301 
L 204.881818 20.825635 
L 205.881818 20.810198 
L 206.881818 20.804545 
L 207.881818 20.766154 
L 208.881818 20.761512 
L 209.881818 20.739445 
L 210.881818 20.733775 
L 211.881818 20.676574 
L 212.881818 20.503619 
L 213.881818 20.489979 
L 214.881818 20.435522 
L 215.881818 20.423046 
L 216.881818 20.403169 
L 217.881818 20.354048 
L 218.881818 20.342178 
L 219.881818 20.319343 
L 220.881818 19.973372 
L 221.881818 19.885518 
L 222.881818 19.71917 
L 223.881818 19.593719 
L 224.881818 19.583196 
L 225.881818 19.540773 
L 226.881818 19.423862 
L 227.881818 19.127526 
L 228.881818 19.114309 
L 229.881818 19.101989 
L 230.881818 19.045644 
L 231.881818 19.034419 
L 232.881818 19.028173 
L 233.881818 19.019221 
L 234.881818 19.000888 
L 235.881818 18.995457 
L 236.881818 18.898152 
L 237.881818 18.892507 
L 238.881818 18.891496 
L 239.881818 18.897317 
L 240.881818 18.954503 
L 241.881818 18.980079 
L 242.881818 19.102074 
L 243.881818 19.115714 
L 244.881818 19.140034 
L 245.881818 19.146797 
L 246.881818 19.171033 
L 247.881818 19.17918 
L 248.881818 19.202966 
L 249.881818 19.213344 
L 250.881818 19.392823 
L 251.881818 19.406355 
L 252.881818 19.420144 
L 253.881818 19.533927 
L 254.881818 19.782988 
L 255.881818 19.860244 
L 256.881818 20.010208 
L 257.881818 20.194263 
L 258.881818 20.221515 
L 259.881818 20.324729 
L 260.881818 20.367382 
L 261.881818 20.403863 
L 262.881818 20.429145 
L 263.881818 20.456163 
L 264.881818 20.584862 
L 265.881818 20.78998 
L 266.881818 20.796399 
L 267.881818 20.850575 
L 268.881818 20.857652 
L 269.881818 20.860477 
L 270.881818 20.873598 
L 271.881818 20.880191 
L 273.518182 20.881245 
L 272.518256 20.881818 
L 272.518377 21.881818 
L 272.518793 22.881818 
L 272.556843 23.881818 
L 272.559862 24.881818 
L 272.566381 25.881818 
L 272.573833 26.881818 
L 272.592948 27.881818 
L 272.600502 28.881818 
L 272.625092 29.881818 
L 272.651259 30.881818 
L 272.667349 31.881818 
L 272.699861 32.881818 
L 272.756209 33.881818 
L 272.776305 34.881818 
L 272.825144 35.881818 
L 272.87364 36.881818 
L 273.087306 37.881818 
L 273.138634 38.881818 
L 273.152862 39.881818 
L 273.218771 40.881818 
L 273.236914 41.881818 
L 273.608239 42.881818 
L 273.709086 43.881818 
L 273.718698 44.881818 
L 273.941189 45.881818 
L 273.997596 46.881818 
L 274.243917 47.881818 
L 274.254064 48.881818 
L 274.306638 49.881818 
L 274.314675 50.881818 
L 274.327894 51.881818 
L 274.335835 52.881818 
L 274.415761 53.881818 
L 274.51118 54.881818 
L 274.516004 55.881818 
L 274.517476 56.881818 
L 274.505909 57.881818 
L 274.503586 58.881818 
L 274.499503 59.881818 
L 274.493141 60.881818 
L 274.489032 61.881818 
L 274.482965 62.881818 
L 274.467743 63.881818 
L 274.440696 64.881818 
L 274.43396 65.881818 
L 274.371339 66.881818 
L 274.365012 67.881818 
L 274.358438 68.881818 
L 274.242427 69.881818 
L 274.156226 70.881818 
L 274.11494 71.881818 
L 274.063336 72.881818 
L 274.027818 73.881818 
L 274.016419 74.881818 
L 273.898734 75.881818 
L 273.810112 76.881818 
L 273.747795 77.881818 
L 273.629944 78.881818 
L 273.567332 79.881818 
L 273.485102 80.881818 
L 273.445907 81.881818 
L 273.434565 82.881818 
L 273.348722 83.881818 
L 273.335248 84.881818 
L 273.321972 85.881818 
L 273.310468 86.881818 
L 273.083511 87.881818 
L 273.073983 88.881818 
L 273.055824 89.881818 
L 272.966921 90.881818 
L 272.893827 91.881818 
L 272.653016 92.881818 
L 272.640478 93.881818 
L 272.574237 94.881818 
L 272.548599 95.881818 
L 272.545067 96.881818 
L 272.521458 97.881818 
L 272.518235 98.881818 
L 272.53821 99.881818 
L 272.547202 100.881818 
L 272.55158 101.881818 
L 272.558837 102.881818 
L 272.564006 103.881818 
L 272.577451 104.881818 
L 272.606626 105.881818 
L 272.614348 106.881818 
L 272.629869 107.881818 
L 272.850502 108.881818 
L 272.87693 109.881818 
L 273.156348 110.881818 
L 273.428796 111.881818 
L 273.45374 112.881818 
L 273.499754 113.881818 
L 273.559587 114.881818 
L 273.932401 115.881818 
L 274.014815 116.881818 
L 274.027341 117.881818 
L 274.121247 118.881818 
L 274.152662 119.881818 
L 274.241892 120.881818 
L 274.249961 121.881818 
L 274.271701 122.881818 
L 274.416061 123.881818 
L 274.451056 124.881818 
L 274.464055 125.881818 
L 274.485936 126.881818 
L 274.517949 127.881818 
L 274.517593 128.881818 
L 274.51341 129.881818 
L 274.497481 130.881818 
L 274.494128 131.881818 
L 274.430169 132.881818 
L 274.309713 133.881818 
L 274.299934 134.881818 
L 274.227377 135.881818 
L 274.187399 136.881818 
L 274.038951 137.881818 
L 274.015758 138.881818 
L 273.987003 139.881818 
L 273.968287 140.881818 
L 273.762299 141.881818 
L 273.737311 142.881818 
L 273.72533 143.881818 
L 273.609529 144.881818 
L 273.59507 145.881818 
L 273.527846 146.881818 
L 273.210788 147.881818 
L 273.168083 148.881818 
L 273.144498 149.881818 
L 273.016112 150.881818 
L 272.741933 151.881818 
L 272.629838 152.881818 
L 272.605809 153.881818 
L 272.595736 154.881818 
L 272.54614 155.881818 
L 272.532727 156.881818 
L 272.527911 157.881818 
L 272.520931 158.881818 
L 272.518458 159.881818 
L 272.518729 160.881818 
L 272.527425 161.881818 
L 272.613137 162.881818 
L 272.622816 163.881818 
L 272.628972 164.881818 
L 272.650731 165.881818 
L 272.809327 166.881818 
L 273.010893 167.881818 
L 273.024817 168.881818 
L 273.134436 169.881818 
L 273.512526 170.881818 
L 273.674037 171.881818 
L 273.718718 172.881818 
L 273.832218 173.881818 
L 274.114432 174.881818 
L 274.125313 175.881818 
L 274.358374 176.881818 
L 274.467169 177.881818 
L 274.476238 178.881818 
L 274.515386 179.881818 
L 274.513977 180.881818 
L 274.488418 181.881818 
L 274.485881 182.881818 
L 274.481804 183.881818 
L 274.476112 184.881818 
L 274.473208 185.881818 
L 274.469801 186.881818 
L 274.46234 187.881818 
L 274.45897 188.881818 
L 274.452567 189.881818 
L 274.364989 190.881818 
L 274.3561 191.881818 
L 274.34732 192.881818 
L 274.332864 193.881818 
L 274.315555 194.881818 
L 274.305607 195.881818 
L 274.273889 196.881818 
L 274.261298 197.881818 
L 274.018742 198.881818 
L 273.97595 199.881818 
L 273.966957 200.881818 
L 273.939935 201.881818 
L 273.89709 202.881818 
L 273.88554 203.881818 
L 273.814344 204.881818 
L 273.632816 205.881818 
L 273.572324 206.881818 
L 273.55506 207.881818 
L 273.22522 208.881818 
L 273.213737 209.881818 
L 273.20237 210.881818 
L 272.943167 211.881818 
L 272.921046 212.881818 
L 272.877266 213.881818 
L 272.864654 214.881818 
L 272.856234 215.881818 
L 272.727425 216.881818 
L 272.631661 217.881818 
L 272.548435 218.881818 
L 272.521494 219.881818 
L 272.5196 220.881818 
L 272.518585 221.881818 
L 272.546722 222.881818 
L 272.701012 223.881818 
L 272.725952 224.881818 
L 272.770036 225.881818 
L 272.898705 226.881818 
L 273.074481 227.881818 
L 273.120348 228.881818 
L 273.139387 229.881818 
L 273.19883 230.881818 
L 273.267963 231.881818 
L 273.518676 232.881818 
L 273.542069 233.881818 
L 273.570045 234.881818 
L 273.585112 235.881818 
L 273.651332 236.881818 
L 273.688383 237.881818 
L 273.886259 238.881818 
L 273.955443 239.881818 
L 273.96978 240.881818 
L 273.981131 241.881818 
L 273.991006 242.881818 
L 274.01395 243.881818 
L 274.023919 244.881818 
L 274.037191 245.881818 
L 274.083767 246.881818 
L 274.125821 247.881818 
L 274.216793 248.881818 
L 274.237641 249.881818 
L 274.263364 250.881818 
L 274.270739 251.881818 
L 274.302549 252.881818 
L 274.310723 253.881818 
L 274.349512 254.881818 
L 274.412454 255.881818 
L 274.42839 256.881818 
L 274.455995 257.881818 
L 274.46863 258.881818 
L 274.471766 259.881818 
L 274.47644 260.881818 
L 274.483494 261.881818 
L 274.505509 262.881818 
L 274.488353 263.881818 
L 274.458065 264.881818 
L 274.432115 265.881818 
L 274.333452 266.881818 
L 274.325816 267.881818 
L 274.316332 268.881818 
L 274.18074 269.881818 
L 274.172092 270.881818 
L 274.078938 271.881818 
L 273.954127 273.518182 
L 272.518182 273.930359 
L 271.518182 273.857997 
L 270.518182 273.596201 
L 269.518182 273.515702 
L 268.518182 273.500764 
L 267.518182 273.484209 
L 266.518182 273.343213 
L 265.518182 273.328135 
L 264.518182 273.225753 
L 263.518182 273.002947 
L 262.518182 272.984402 
L 261.518182 272.932049 
L 260.518182 272.890074 
L 259.518182 272.770225 
L 258.518182 272.571393 
L 257.518182 272.562491 
L 256.518182 272.550847 
L 255.518182 272.54649 
L 254.518182 272.537115 
L 253.518182 272.53617 
L 252.518182 272.619871 
L 251.518182 272.626988 
L 250.518182 272.636899 
L 249.518182 272.660237 
L 248.518182 272.736002 
L 247.518182 272.848145 
L 246.518182 272.896574 
L 245.518182 272.910309 
L 244.518182 273.0463 
L 243.518182 273.15247 
L 242.518182 273.161884 
L 241.518182 273.226809 
L 240.518182 273.604206 
L 239.518182 273.939548 
L 238.518182 274.010898 
L 237.518182 274.136333 
L 236.518182 274.200413 
L 235.518182 274.212932 
L 234.518182 274.346047 
L 233.518182 274.395827 
L 232.518182 274.409799 
L 231.518182 274.416533 
L 230.518182 274.477265 
L 229.518182 274.489958 
L 228.518182 274.497846 
L 227.518182 274.506208 
L 226.518182 274.476746 
L 225.518182 274.472246 
L 224.518182 274.46634 
L 223.518182 274.456969 
L 222.518182 274.436893 
L 221.518182 274.326272 
L 220.518182 274.308455 
L 219.518182 274.241656 
L 218.518182 274.225123 
L 217.518182 274.172908 
L 216.518182 274.030547 
L 215.518182 273.984371 
L 214.518182 273.960404 
L 213.518182 273.93816 
L 212.518182 273.926911 
L 211.518182 273.887316 
L 210.518182 273.866416 
L 209.518182 273.854909 
L 208.518182 273.789763 
L 207.518182 273.690904 
L 206.518182 273.283615 
L 205.518182 273.031951 
L 204.518182 272.998771 
L 203.518182 272.977062 
L 202.518182 272.949266 
L 201.518182 272.828042 
L 200.518182 272.805825 
L 199.518182 272.76131 
L 198.518182 272.723156 
L 197.518182 272.714453 
L 196.518182 272.708175 
L 195.518182 272.61806 
L 194.518182 272.560388 
L 193.518182 272.546026 
L 192.518182 272.528459 
L 191.518182 272.613439 
L 190.518182 272.649089 
L 189.518182 272.653894 
L 188.518182 272.690143 
L 187.518182 272.72966 
L 186.518182 272.822375 
L 185.518182 272.855711 
L 184.518182 272.873993 
L 183.518182 273.024359 
L 182.518182 273.131624 
L 181.518182 273.140387 
L 180.518182 273.39644 
L 179.518182 273.426697 
L 178.518182 273.436966 
L 177.518182 273.511286 
L 176.518182 273.53303 
L 175.518182 273.543432 
L 174.518182 273.683425 
L 173.518182 273.86145 
L 172.518182 273.874511 
L 171.518182 273.88402 
L 170.518182 273.934783 
L 169.518182 273.96252 
L 168.518182 273.978008 
L 167.518182 274.222217 
L 166.518182 274.285898 
L 165.518182 274.307326 
L 164.518182 274.474162 
L 163.518182 274.478801 
L 162.518182 274.483403 
L 161.518182 274.501944 
L 160.518182 274.517868 
L 159.518182 274.516991 
L 158.518182 274.461221 
L 157.518182 274.45412 
L 156.518182 274.44495 
L 155.518182 274.44117 
L 154.518182 274.317347 
L 153.518182 274.230389 
L 152.518182 274.220132 
L 151.518182 274.208036 
L 150.518182 274.186143 
L 149.518182 273.931128 
L 148.518182 273.869128 
L 147.518182 273.721228 
L 146.518182 273.697971 
L 145.518182 273.495186 
L 144.518182 273.457753 
L 143.518182 273.35031 
L 142.518182 273.335832 
L 141.518182 273.244565 
L 140.518182 273.230507 
L 139.518182 273.056617 
L 138.518182 273.047824 
L 137.518182 273.023075 
L 136.518182 272.851469 
L 135.518182 272.729705 
L 134.518182 272.66427 
L 133.518182 272.570419 
L 132.518182 272.521431 
L 131.518182 272.519388 
L 130.518182 272.518848 
L 129.518182 272.518216 
L 128.518182 272.531385 
L 127.518182 272.547173 
L 126.518182 272.571551 
L 125.518182 272.60247 
L 124.518182 272.814459 
L 123.518182 272.825239 
L 122.518182 272.885353 
L 121.518182 272.900248 
L 120.518182 273.092893 
L 119.518182 273.157983 
L 118.518182 273.174122 
L 117.518182 273.22012 
L 116.518182 273.296843 
L 115.518182 273.328498 
L 114.518182 273.550335 
L 113.518182 273.59289 
L 112.518182 273.61547 
L 111.518182 273.625462 
L 110.518182 273.680349 
L 109.518182 274.007062 
L 108.518182 274.057526 
L 107.518182 274.174087 
L 106.518182 274.204853 
L 105.518182 274.338534 
L 104.518182 274.421549 
L 103.518182 274.426968 
L 102.518182 274.456954 
L 101.518182 274.46475 
L 100.518182 274.495667 
L 99.518182 274.518101 
L 98.518182 274.501952 
L 97.518182 274.482779 
L 96.518182 274.422293 
L 95.518182 274.414519 
L 94.518182 274.379986 
L 93.518182 274.308715 
L 92.518182 274.142361 
L 91.518182 274.052362 
L 90.518182 274.029184 
L 89.518182 273.811634 
L 88.518182 273.773816 
L 87.518182 273.727084 
L 86.518182 273.644244 
L 85.518182 273.357166 
L 84.518182 273.149451 
L 83.518182 273.140234 
L 82.518182 272.931013 
L 81.518182 272.879208 
L 80.518182 272.869217 
L 79.518182 272.761642 
L 78.518182 272.616993 
L 77.518182 272.541779 
L 76.518182 272.539705 
L 75.518182 272.518708 
L 74.518182 272.520352 
L 73.518182 272.521804 
L 72.518182 272.591721 
L 71.518182 272.60665 
L 70.518182 272.644241 
L 69.518182 272.651622 
L 68.518182 272.692358 
L 67.518182 272.735135 
L 66.518182 272.787299 
L 65.518182 272.815942 
L 64.518182 273.060307 
L 63.518182 273.103668 
L 62.518182 273.176584 
L 61.518182 273.237721 
L 60.518182 273.44561 
L 59.518182 273.464914 
L 58.518182 273.477837 
L 57.518182 273.705198 
L 56.518182 273.722623 
L 55.518182 273.995901 
L 54.518182 274.01759 
L 53.518182 274.095182 
L 52.518182 274.124277 
L 51.518182 274.132943 
L 50.518182 274.175762 
L 49.518182 274.183593 
L 48.518182 274.197164 
L 47.518182 274.230841 
L 46.518182 274.253592 
L 45.518182 274.345105 
L 44.518182 274.358192 
L 43.518182 274.419691 
L 42.518182 274.433317 
L 41.518182 274.509923 
L 40.518182 274.518018 
L 39.518182 274.50539 
L 38.518182 274.499401 
L 37.518182 274.361831 
L 36.518182 274.134983 
L 35.518182 274.072997 
L 34.518182 273.741402 
L 33.518182 273.558995 
L 32.518182 273.54156 
L 31.518182 273.379438 
L 30.518182 273.349674 
L 29.518182 273.299196 
L 28.518182 273.228476 
L 27.518182 273.213069 
L 26.518182 273.104113 
L 25.518182 273.053885 
L 24.518182 273.040102 
L 23.518182 272.97135 
L 22.518182 272.95076 
L 21.518182 272.834286 
L 19.881818 272.800182 
L 20.785152 272.518182 
L 20.877413 271.518182 
L 20.881278 270.518182 
L 20.874849 269.518182 
L 20.839565 268.518182 
L 20.800591 267.518182 
L 20.777681 266.518182 
L 20.752843 265.518182 
L 20.748091 264.518182 
L 20.652734 263.518182 
L 20.591137 262.518182 
L 20.581243 261.518182 
L 20.454559 260.518182 
L 20.258025 259.518182 
L 20.240044 258.518182 
L 20.183866 257.518182 
L 20.154021 256.518182 
L 20.084166 255.518182 
L 20.041123 254.518182 
L 19.981955 253.518182 
L 19.89611 252.518182 
L 19.867365 251.518182 
L 19.833643 250.518182 
L 19.790031 249.518182 
L 19.658176 248.518182 
L 19.627972 247.518182 
L 19.606398 246.518182 
L 19.488137 245.518182 
L 19.41732 244.518182 
L 19.104126 243.518182 
L 19.077313 242.518182 
L 19.032506 241.518182 
L 18.997597 240.518182 
L 18.94431 239.518182 
L 18.939112 238.518182 
L 18.882361 237.518182 
L 18.886259 236.518182 
L 18.896553 235.518182 
L 18.903136 234.518182 
L 18.933262 233.518182 
L 18.937323 232.518182 
L 19.006345 231.518182 
L 19.013439 230.518182 
L 19.040518 229.518182 
L 19.108246 228.518182 
L 19.137871 227.518182 
L 19.147643 226.518182 
L 19.155672 225.518182 
L 19.210844 224.518182 
L 19.532365 223.518182 
L 19.606394 222.518182 
L 19.835849 221.518182 
L 19.883394 220.518182 
L 20.164006 219.518182 
L 20.20842 218.518182 
L 20.276992 217.518182 
L 20.482434 216.518182 
L 20.712259 215.518182 
L 20.798445 214.518182 
L 20.84467 213.518182 
L 20.864594 212.518182 
L 20.868763 211.518182 
L 20.880973 210.518182 
L 20.881537 209.518182 
L 20.814046 208.518182 
L 20.807034 207.518182 
L 20.705721 206.518182 
L 20.698102 205.518182 
L 20.675032 204.518182 
L 20.620297 203.518182 
L 20.611547 202.518182 
L 20.545344 201.518182 
L 20.537195 200.518182 
L 20.379467 199.518182 
L 20.335902 198.518182 
L 20.23348 197.518182 
L 20.217558 196.518182 
L 20.038464 195.518182 
L 19.630932 194.518182 
L 19.46115 193.518182 
L 19.4352 192.518182 
L 19.424047 191.518182 
L 19.405035 190.518182 
L 19.388588 189.518182 
L 19.21152 188.518182 
L 19.18523 187.518182 
L 19.157816 186.518182 
L 19.03161 185.518182 
L 19.010925 184.518182 
L 19.005206 183.518182 
L 18.894019 182.518182 
L 18.884289 181.518182 
L 18.904424 180.518182 
L 18.908161 179.518182 
L 18.923903 178.518182 
L 18.931096 177.518182 
L 18.966605 176.518182 
L 18.970889 175.518182 
L 18.977661 174.518182 
L 18.989681 173.518182 
L 19.000007 172.518182 
L 19.007861 171.518182 
L 19.121861 170.518182 
L 19.24183 169.518182 
L 19.418734 168.518182 
L 19.724943 167.518182 
L 19.880898 166.518182 
L 19.893407 165.518182 
L 19.958181 164.518182 
L 19.96799 163.518182 
L 19.977658 162.518182 
L 20.370155 161.518182 
L 20.566747 160.518182 
L 20.674625 159.518182 
L 20.681156 158.518182 
L 20.708502 157.518182 
L 20.730513 156.518182 
L 20.805746 155.518182 
L 20.816079 154.518182 
L 20.869988 153.518182 
L 20.874993 152.518182 
L 20.835837 151.518182 
L 20.7749 150.518182 
L 20.766642 149.518182 
L 20.753616 148.518182 
L 20.743038 147.518182 
L 20.648414 146.518182 
L 20.323173 145.518182 
L 20.300085 144.518182 
L 19.978382 143.518182 
L 19.946709 142.518182 
L 19.808525 141.518182 
L 19.504801 140.518182 
L 19.441452 139.518182 
L 19.430555 138.518182 
L 19.399053 137.518182 
L 19.383793 136.518182 
L 19.196582 135.518182 
L 19.169753 134.518182 
L 19.114453 133.518182 
L 19.070178 132.518182 
L 19.032334 131.518182 
L 19.0198 130.518182 
L 19.005272 129.518182 
L 18.913496 128.518182 
L 18.911088 127.518182 
L 18.903623 126.518182 
L 18.893158 125.518182 
L 18.881818 124.518182 
L 18.88188 123.518182 
L 18.890588 122.518182 
L 18.963072 121.518182 
L 19.033092 120.518182 
L 19.190389 119.518182 
L 19.217063 118.518182 
L 19.386313 117.518182 
L 19.397268 116.518182 
L 19.421068 115.518182 
L 19.443703 114.518182 
L 19.462891 113.518182 
L 19.729344 112.518182 
L 19.886946 111.518182 
L 19.912752 110.518182 
L 19.981984 109.518182 
L 20.020714 108.518182 
L 20.253141 107.518182 
L 20.456957 106.518182 
L 20.482674 105.518182 
L 20.551034 104.518182 
L 20.694928 103.518182 
L 20.799016 102.518182 
L 20.82058 101.518182 
L 20.848508 100.518182 
L 20.851932 99.518182 
L 20.877686 98.518182 
L 20.881465 97.518182 
L 20.881809 96.518182 
L 20.802119 95.518182 
L 20.7966 94.518182 
L 20.786471 93.518182 
L 20.750576 92.518182 
L 20.744551 91.518182 
L 20.714671 90.518182 
L 20.707375 89.518182 
L 20.699452 88.518182 
L 20.636469 87.518182 
L 20.626854 86.518182 
L 20.602797 85.518182 
L 20.590159 84.518182 
L 20.531779 83.518182 
L 20.403214 82.518182 
L 20.328431 81.518182 
L 20.126185 80.518182 
L 20.089122 79.518182 
L 20.012522 78.518182 
L 19.753916 77.518182 
L 19.681369 76.518182 
L 19.666676 75.518182 
L 19.597432 74.518182 
L 19.563083 73.518182 
L 19.517872 72.518182 
L 19.362192 71.518182 
L 19.209551 70.518182 
L 19.139597 69.518182 
L 19.077461 68.518182 
L 18.945735 67.518182 
L 18.930904 66.518182 
L 18.900688 65.518182 
L 18.897459 64.518182 
L 18.891602 63.518182 
L 18.893005 62.518182 
L 18.91195 61.518182 
L 18.938078 60.518182 
L 18.957262 59.518182 
L 18.961475 58.518182 
L 18.969984 57.518182 
L 19.184731 56.518182 
L 19.192396 55.518182 
L 19.248586 54.518182 
L 19.25857 53.518182 
L 19.265979 52.518182 
L 19.354545 51.518182 
L 19.574644 50.518182 
L 19.584375 49.518182 
L 19.701363 48.518182 
L 19.942566 47.518182 
L 19.992981 46.518182 
L 20.243249 45.518182 
L 20.288166 44.518182 
L 20.305374 43.518182 
L 20.592688 42.518182 
L 20.745876 41.518182 
L 20.828246 40.518182 
L 20.834102 39.518182 
L 20.838856 38.518182 
L 20.846982 37.518182 
L 20.849765 36.518182 
L 20.859665 35.518182 
L 20.862835 34.518182 
L 20.865241 33.518182 
L 20.868434 32.518182 
L 20.871121 31.518182 
L 20.876273 30.518182 
L 20.880203 29.518182 
L 20.880694 28.518182 
L 20.857164 27.518182 
L 20.853277 26.518182 
L 20.786368 25.518182 
L 20.780145 24.518182 
L 20.728966 23.518182 
L 20.709918 22.518182 
L 20.577752 21.518182 
L 20.522839 19.881818 
" clip-path="url(#p6abe08f240)" style="fill: none; stroke: #000000; stroke-width: 2; stroke-linecap: square"/>
   </g>
  </g>
  <defs>
   <clipPath id="p6abe08f240">
    <rect x="7.2" y="7.2" width="279" height="279"/>
   </clipPath>
  </defs>
 </g>
</svg>
